<svg id="visual" viewBox="0 0 600 400" width="600" height="400" xmlns="http://www.w3.org/2000/svg" xmlns:xlink="http://www.w3.org/1999/xlink" version="1.1"><rect x="0" y="0" width="600" height="400" fill="#fdf6f2"></rect><defs><linearGradient id="grad1_0" x1="33.3%" y1="0%" x2="100%" y2="100%"><stop offset="20%" stop-color="#f9c4c6" stop-opacity="1"></stop><stop offset="80%" stop-color="#f9c4c6" stop-opacity="1"></stop></linearGradient></defs><defs><linearGradient id="grad1_1" x1="33.3%" y1="0%" x2="100%" y2="100%"><stop offset="20%" stop-color="#f9c4c6" stop-opacity="1"></stop><stop offset="80%" stop-color="#facecb" stop-opacity="1"></stop></linearGradient></defs><defs><linearGradient id="grad1_2" x1="33.3%" y1="0%" x2="100%" y2="100%"><stop offset="20%" stop-color="#fbd9d2" stop-opacity="1"></stop><stop offset="80%" stop-color="#facecb" stop-opacity="1"></stop></linearGradient></defs><defs><linearGradient id="grad1_3" x1="33.3%" y1="0%" x2="100%" y2="100%"><stop offset="20%" stop-color="#fbd9d2" stop-opacity="1"></stop><stop offset="80%" stop-color="#fce3db" stop-opacity="1"></stop></linearGradient></defs><defs><linearGradient id="grad1_4" x1="33.3%" y1="0%" x2="100%" y2="100%"><stop offset="20%" stop-color="#fcece6" stop-opacity="1"></stop><stop offset="80%" stop-color="#fce3db" stop-opacity="1"></stop></linearGradient></defs><defs><linearGradient id="grad1_5" x1="33.3%" y1="0%" x2="100%" y2="100%"><stop offset="20%" stop-color="#fcece6" stop-opacity="1"></stop><stop offset="80%" stop-color="#fdf6f2" stop-opacity="1"></stop></linearGradient></defs><defs><linearGradient id="grad2_0" x1="0%" y1="0%" x2="66.7%" y2="100%"><stop offset="20%" stop-color="#f9c4c6" stop-opacity="1"></stop><stop offset="80%" stop-color="#f9c4c6" stop-opacity="1"></stop></linearGradient></defs><defs><linearGradient id="grad2_1" x1="0%" y1="0%" x2="66.7%" y2="100%"><stop offset="20%" stop-color="#facecb" stop-opacity="1"></stop><stop offset="80%" stop-color="#f9c4c6" stop-opacity="1"></stop></linearGradient></defs><defs><linearGradient id="grad2_2" x1="0%" y1="0%" x2="66.7%" y2="100%"><stop offset="20%" stop-color="#facecb" stop-opacity="1"></stop><stop offset="80%" stop-color="#fbd9d2" stop-opacity="1"></stop></linearGradient></defs><defs><linearGradient id="grad2_3" x1="0%" y1="0%" x2="66.7%" y2="100%"><stop offset="20%" stop-color="#fce3db" stop-opacity="1"></stop><stop offset="80%" stop-color="#fbd9d2" stop-opacity="1"></stop></linearGradient></defs><defs><linearGradient id="grad2_4" x1="0%" y1="0%" x2="66.7%" y2="100%"><stop offset="20%" stop-color="#fce3db" stop-opacity="1"></stop><stop offset="80%" stop-color="#fcece6" stop-opacity="1"></stop></linearGradient></defs><defs><linearGradient id="grad2_5" x1="0%" y1="0%" x2="66.7%" y2="100%"><stop offset="20%" stop-color="#fdf6f2" stop-opacity="1"></stop><stop offset="80%" stop-color="#fcece6" stop-opacity="1"></stop></linearGradient></defs><g transform="translate(600, 0)"><path d="M0 360.6C-29.6 359.6 -59.2 358.6 -76.5 335.4C-93.9 312.2 -99.1 266.8 -125.4 260.4C-151.6 253.9 -198.9 286.4 -224.8 281.9C-250.7 277.4 -255.1 235.9 -250.2 199.5C-245.2 163.1 -230.9 131.7 -227.9 109.8C-225 87.9 -233.4 75.5 -257.4 58.7C-281.4 42 -321 21 -360.6 0L0 0Z" fill="#fcf1ec"></path><path d="M0 300.5C-24.6 299.6 -49.3 298.8 -63.8 279.5C-78.3 260.2 -82.6 222.4 -104.5 217C-126.4 211.6 -165.8 238.7 -187.3 234.9C-208.9 231.2 -212.6 196.6 -208.5 166.3C-204.4 135.9 -192.4 109.7 -190 91.5C-187.5 73.2 -194.5 62.9 -214.5 49C-234.5 35 -267.5 17.5 -300.5 0L0 0Z" fill="#fce8e0"></path><path d="M0 240.4C-19.7 239.7 -39.4 239 -51 223.6C-62.6 208.1 -66.1 177.9 -83.6 173.6C-101.1 169.3 -132.6 190.9 -149.9 187.9C-167.1 184.9 -170.1 157.3 -166.8 133C-163.5 108.7 -153.9 87.8 -152 73.2C-150 58.6 -155.6 50.3 -171.6 39.2C-187.6 28 -214 14 -240.4 0L0 0Z" fill="#fbded6"></path><path d="M0 180.3C-14.8 179.8 -29.6 179.3 -38.3 167.7C-47 156.1 -49.6 133.4 -62.7 130.2C-75.8 127 -99.5 143.2 -112.4 140.9C-125.3 138.7 -127.6 118 -125.1 99.8C-122.6 81.5 -115.5 65.8 -114 54.9C-112.5 43.9 -116.7 37.7 -128.7 29.4C-140.7 21 -160.5 10.5 -180.3 0L0 0Z" fill="#fbd3ce"></path><path d="M0 120.2C-9.9 119.9 -19.7 119.5 -25.5 111.8C-31.3 104.1 -33 88.9 -41.8 86.8C-50.5 84.6 -66.3 95.5 -74.9 94C-83.6 92.5 -85 78.6 -83.4 66.5C-81.7 54.4 -77 43.9 -76 36.6C-75 29.3 -77.8 25.2 -85.8 19.6C-93.8 14 -107 7 -120.2 0L0 0Z" fill="#fac9c8"></path><path d="M0 60.1C-4.9 59.9 -9.9 59.8 -12.8 55.9C-15.7 52 -16.5 44.5 -20.9 43.4C-25.3 42.3 -33.2 47.7 -37.5 47C-41.8 46.2 -42.5 39.3 -41.7 33.3C-40.9 27.2 -38.5 21.9 -38 18.3C-37.5 14.6 -38.9 12.6 -42.9 9.8C-46.9 7 -53.5 3.5 -60.1 0L0 0Z" fill="#f9c4c6"></path></g><g transform="translate(0, 400)"><path d="M0 -360.6C27 -340.6 54 -320.5 65.2 -285.7C76.4 -250.8 71.9 -201 98.5 -204.5C125.1 -208.1 182.7 -265 220.7 -276.8C258.8 -288.6 277.2 -255.3 278.3 -222C279.5 -188.6 263.3 -155.2 276.6 -133.2C289.9 -111.2 332.6 -100.5 351.5 -80.2C370.4 -59.9 365.5 -30 360.6 0L0 0Z" fill="#fcf1ec"></path><path d="M0 -300.5C22.5 -283.8 45 -267.1 54.3 -238C63.7 -209 59.9 -167.5 82.1 -170.4C104.2 -173.4 152.2 -220.8 183.9 -230.6C215.6 -240.5 231 -212.8 231.9 -185C232.9 -157.2 219.4 -129.4 230.5 -111C241.6 -92.6 277.2 -83.8 292.9 -66.9C308.7 -49.9 304.6 -25 300.5 0L0 0Z" fill="#fce8e0"></path><path d="M0 -240.4C18 -227 36 -213.7 43.5 -190.4C51 -167.2 48 -134 65.7 -136.3C83.4 -138.7 121.8 -176.6 147.1 -184.5C172.5 -192.4 184.8 -170.2 185.6 -148C186.3 -125.7 175.5 -103.5 184.4 -88.8C193.3 -74.1 221.7 -67 234.3 -53.5C246.9 -40 243.7 -20 240.4 0L0 0Z" fill="#fbded6"></path><path d="M0 -180.3C13.5 -170.3 27 -160.3 32.6 -142.8C38.2 -125.4 36 -100.5 49.2 -102.3C62.5 -104 91.3 -132.5 110.4 -138.4C129.4 -144.3 138.6 -127.7 139.2 -111C139.7 -94.3 131.7 -77.6 138.3 -66.6C144.9 -55.6 166.3 -50.3 175.8 -40.1C185.2 -30 182.7 -15 180.3 0L0 0Z" fill="#fbd3ce"></path><path d="M0 -120.2C9 -113.5 18 -106.8 21.7 -95.2C25.5 -83.6 24 -67 32.8 -68.2C41.7 -69.4 60.9 -88.3 73.6 -92.3C86.3 -96.2 92.4 -85.1 92.8 -74C93.2 -62.9 87.8 -51.7 92.2 -44.4C96.6 -37.1 110.9 -33.5 117.2 -26.7C123.5 -20 121.8 -10 120.2 0L0 0Z" fill="#fac9c8"></path><path d="M0 -60.1C4.5 -56.8 9 -53.4 10.9 -47.6C12.7 -41.8 12 -33.5 16.4 -34.1C20.8 -34.7 30.4 -44.2 36.8 -46.1C43.1 -48.1 46.2 -42.6 46.4 -37C46.6 -31.4 43.9 -25.9 46.1 -22.2C48.3 -18.5 55.4 -16.8 58.6 -13.4C61.7 -10 60.9 -5 60.1 0L0 0Z" fill="#f9c4c6"></path></g></svg>