<svg id="visual" viewBox="0 0 450 900" width="450" height="900" xmlns="http://www.w3.org/2000/svg" xmlns:xlink="http://www.w3.org/1999/xlink" version="1.1"><rect x="0" y="0" width="450" height="900" fill="#355070"></rect><defs><linearGradient id="grad1_0" x1="0%" y1="100%" x2="100%" y2="0%"><stop offset="30%" stop-color="#6b4f7d" stop-opacity="1"></stop><stop offset="70%" stop-color="#6b4f7d" stop-opacity="1"></stop></linearGradient></defs><defs><linearGradient id="grad1_1" x1="0%" y1="100%" x2="100%" y2="0%"><stop offset="30%" stop-color="#6b4f7d" stop-opacity="1"></stop><stop offset="70%" stop-color="#62507d" stop-opacity="1"></stop></linearGradient></defs><defs><linearGradient id="grad1_2" x1="0%" y1="100%" x2="100%" y2="0%"><stop offset="30%" stop-color="#5a507d" stop-opacity="1"></stop><stop offset="70%" stop-color="#62507d" stop-opacity="1"></stop></linearGradient></defs><defs><linearGradient id="grad1_3" x1="0%" y1="100%" x2="100%" y2="0%"><stop offset="30%" stop-color="#5a507d" stop-opacity="1"></stop><stop offset="70%" stop-color="#52517b" stop-opacity="1"></stop></linearGradient></defs><defs><linearGradient id="grad1_4" x1="0%" y1="100%" x2="100%" y2="0%"><stop offset="30%" stop-color="#4a5179" stop-opacity="1"></stop><stop offset="70%" stop-color="#52517b" stop-opacity="1"></stop></linearGradient></defs><defs><linearGradient id="grad1_5" x1="0%" y1="100%" x2="100%" y2="0%"><stop offset="30%" stop-color="#4a5179" stop-opacity="1"></stop><stop offset="70%" stop-color="#425177" stop-opacity="1"></stop></linearGradient></defs><defs><linearGradient id="grad1_6" x1="0%" y1="100%" x2="100%" y2="0%"><stop offset="30%" stop-color="#3b5074" stop-opacity="1"></stop><stop offset="70%" stop-color="#425177" stop-opacity="1"></stop></linearGradient></defs><defs><linearGradient id="grad1_7" x1="0%" y1="100%" x2="100%" y2="0%"><stop offset="30%" stop-color="#3b5074" stop-opacity="1"></stop><stop offset="70%" stop-color="#355070" stop-opacity="1"></stop></linearGradient></defs><defs><linearGradient id="grad2_0" x1="0%" y1="100%" x2="100%" y2="0%"><stop offset="30%" stop-color="#6b4f7d" stop-opacity="1"></stop><stop offset="70%" stop-color="#6b4f7d" stop-opacity="1"></stop></linearGradient></defs><defs><linearGradient id="grad2_1" x1="0%" y1="100%" x2="100%" y2="0%"><stop offset="30%" stop-color="#62507d" stop-opacity="1"></stop><stop offset="70%" stop-color="#6b4f7d" stop-opacity="1"></stop></linearGradient></defs><defs><linearGradient id="grad2_2" x1="0%" y1="100%" x2="100%" y2="0%"><stop offset="30%" stop-color="#62507d" stop-opacity="1"></stop><stop offset="70%" stop-color="#5a507d" stop-opacity="1"></stop></linearGradient></defs><defs><linearGradient id="grad2_3" x1="0%" y1="100%" x2="100%" y2="0%"><stop offset="30%" stop-color="#52517b" stop-opacity="1"></stop><stop offset="70%" stop-color="#5a507d" stop-opacity="1"></stop></linearGradient></defs><defs><linearGradient id="grad2_4" x1="0%" y1="100%" x2="100%" y2="0%"><stop offset="30%" stop-color="#52517b" stop-opacity="1"></stop><stop offset="70%" stop-color="#4a5179" stop-opacity="1"></stop></linearGradient></defs><defs><linearGradient id="grad2_5" x1="0%" y1="100%" x2="100%" y2="0%"><stop offset="30%" stop-color="#425177" stop-opacity="1"></stop><stop offset="70%" stop-color="#4a5179" stop-opacity="1"></stop></linearGradient></defs><defs><linearGradient id="grad2_6" x1="0%" y1="100%" x2="100%" y2="0%"><stop offset="30%" stop-color="#425177" stop-opacity="1"></stop><stop offset="70%" stop-color="#3b5074" stop-opacity="1"></stop></linearGradient></defs><defs><linearGradient id="grad2_7" x1="0%" y1="100%" x2="100%" y2="0%"><stop offset="30%" stop-color="#355070" stop-opacity="1"></stop><stop offset="70%" stop-color="#3b5074" stop-opacity="1"></stop></linearGradient></defs><g transform="translate(450, 900)"><path d="M-450 0C-448.4 -61.5 -446.7 -123 -415.7 -172.2C-384.7 -221.4 -324.4 -258.2 -269.4 -269.4C-214.5 -280.6 -164.9 -266.1 -120.9 -291.9C-76.9 -317.8 -38.5 -383.9 0 -450L0 0Z" fill="#385072"></path><path d="M-393.7 0C-392.3 -53.8 -390.9 -107.7 -363.8 -150.7C-336.6 -193.7 -283.8 -225.9 -235.7 -235.7C-187.6 -245.5 -144.3 -232.9 -105.8 -255.5C-67.3 -278 -33.7 -335.9 0 -393.7L0 0Z" fill="#3f5175"></path><path d="M-337.5 0C-336.3 -46.1 -335.1 -92.3 -311.8 -129.2C-288.6 -166 -243.3 -193.7 -202.1 -202.1C-160.8 -210.4 -123.7 -199.6 -90.7 -219C-57.7 -238.3 -28.8 -287.9 0 -337.5L0 0Z" fill="#465178"></path><path d="M-281.2 0C-280.2 -38.4 -279.2 -76.9 -259.8 -107.6C-240.5 -138.4 -202.7 -161.4 -168.4 -168.4C-134 -175.4 -103.1 -166.3 -75.6 -182.5C-48.1 -198.6 -24 -239.9 0 -281.2L0 0Z" fill="#4e517a"></path><path d="M-225 0C-224.2 -30.8 -223.4 -61.5 -207.9 -86.1C-192.4 -110.7 -162.2 -129.1 -134.7 -134.7C-107.2 -140.3 -82.5 -133.1 -60.5 -146C-38.5 -158.9 -19.2 -191.9 0 -225L0 0Z" fill="#56517c"></path><path d="M-168.7 0C-168.1 -23.1 -167.5 -46.1 -155.9 -64.6C-144.3 -83 -121.6 -96.8 -101 -101C-80.4 -105.2 -61.8 -99.8 -45.3 -109.5C-28.8 -119.2 -14.4 -144 0 -168.7L0 0Z" fill="#5e507d"></path><path d="M-112.5 0C-112.1 -15.4 -111.7 -30.8 -103.9 -43.1C-96.2 -55.3 -81.1 -64.6 -67.4 -67.4C-53.6 -70.1 -41.2 -66.5 -30.2 -73C-19.2 -79.4 -9.6 -96 0 -112.5L0 0Z" fill="#674f7d"></path><path d="M-56.2 0C-56 -7.7 -55.8 -15.4 -52 -21.5C-48.1 -27.7 -40.5 -32.3 -33.7 -33.7C-26.8 -35.1 -20.6 -33.3 -15.1 -36.5C-9.6 -39.7 -4.8 -48 0 -56.2L0 0Z" fill="#6b4f7d"></path></g><g transform="translate(0, 0)"><path d="M450 0C423.7 52.5 397.4 104.9 374.2 155C351 205 330.8 252.7 299.1 299.1C267.4 345.5 224 390.8 172.2 415.7C120.4 440.7 60.2 445.3 0 450L0 0Z" fill="#385072"></path><path d="M393.8 0C370.7 45.9 347.7 91.8 327.4 135.6C307.1 179.4 289.5 221.1 261.7 261.7C233.9 302.4 196 341.9 150.7 363.8C105.4 385.6 52.7 389.7 0 393.8L0 0Z" fill="#3f5175"></path><path d="M337.5 0C317.8 39.4 298 78.7 280.6 116.2C263.2 153.8 248.1 189.5 224.3 224.3C200.5 259.2 168 293.1 129.2 311.8C90.3 330.5 45.2 334 0 337.5L0 0Z" fill="#465178"></path><path d="M281.3 0C264.8 32.8 248.4 65.6 233.9 96.9C219.4 128.1 206.8 157.9 186.9 186.9C167.1 216 140 244.2 107.6 259.8C75.3 275.4 37.6 278.3 0 281.3L0 0Z" fill="#4e517a"></path><path d="M225 0C211.8 26.2 198.7 52.5 187.1 77.5C175.5 102.5 165.4 126.3 149.6 149.6C133.7 172.8 112 195.4 86.1 207.9C60.2 220.3 30.1 222.7 0 225L0 0Z" fill="#56517c"></path><path d="M168.8 0C158.9 19.7 149 39.4 140.3 58.1C131.6 76.9 124.1 94.7 112.2 112.2C100.3 129.6 84 146.5 64.6 155.9C45.2 165.3 22.6 167 0 168.8L0 0Z" fill="#5e507d"></path><path d="M112.5 0C105.9 13.1 99.3 26.2 93.5 38.7C87.7 51.3 82.7 63.2 74.8 74.8C66.8 86.4 56 97.7 43.1 103.9C30.1 110.2 15.1 111.3 0 112.5L0 0Z" fill="#674f7d"></path><path d="M56.3 0C53 6.6 49.7 13.1 46.8 19.4C43.9 25.6 41.4 31.6 37.4 37.4C33.4 43.2 28 48.8 21.5 52C15.1 55.1 7.5 55.7 0 56.3L0 0Z" fill="#6b4f7d"></path></g></svg>