<svg id="visual" viewBox="0 0 1500 600" width="1500" height="600" xmlns="http://www.w3.org/2000/svg" xmlns:xlink="http://www.w3.org/1999/xlink" version="1.1"><path d="M0 328L27.8 327.8C55.7 327.7 111.3 327.3 166.8 307.5C222.3 287.7 277.7 248.3 333.2 234.2C388.7 220 444.3 231 500 245.7C555.7 260.3 611.3 278.7 666.8 286C722.3 293.3 777.7 289.7 833.2 273.5C888.7 257.3 944.3 228.7 1000 231.7C1055.7 234.7 1111.3 269.3 1166.8 284C1222.3 298.7 1277.7 293.3 1333.2 284.7C1388.7 276 1444.3 264 1472.2 258L1500 252L1500 0L1472.2 0C1444.3 0 1388.7 0 1333.2 0C1277.7 0 1222.3 0 1166.8 0C1111.3 0 1055.7 0 1000 0C944.3 0 888.7 0 833.2 0C777.7 0 722.3 0 666.8 0C611.3 0 555.7 0 500 0C444.3 0 388.7 0 333.2 0C277.7 0 222.3 0 166.8 0C111.3 0 55.7 0 27.8 0L0 0Z" fill="#515575"></path><path d="M0 178L27.8 191C55.7 204 111.3 230 166.8 228.5C222.3 227 277.7 198 333.2 190.5C388.7 183 444.3 197 500 208.5C555.7 220 611.3 229 666.8 236.3C722.3 243.7 777.7 249.3 833.2 254.5C888.7 259.7 944.3 264.3 1000 255.8C1055.7 247.3 1111.3 225.7 1166.8 224.3C1222.3 223 1277.7 242 1333.2 243C1388.7 244 1444.3 227 1472.2 218.5L1500 210L1500 0L1472.2 0C1444.3 0 1388.7 0 1333.2 0C1277.7 0 1222.3 0 1166.8 0C1111.3 0 1055.7 0 1000 0C944.3 0 888.7 0 833.2 0C777.7 0 722.3 0 666.8 0C611.3 0 555.7 0 500 0C444.3 0 388.7 0 333.2 0C277.7 0 222.3 0 166.8 0C111.3 0 55.7 0 27.8 0L0 0Z" fill="#655b7f"></path><path d="M0 245L27.8 246.2C55.7 247.3 111.3 249.7 166.8 240.8C222.3 232 277.7 212 333.2 192.8C388.7 173.7 444.3 155.3 500 163.2C555.7 171 611.3 205 666.8 212.8C722.3 220.7 777.7 202.3 833.2 206.3C888.7 210.3 944.3 236.7 1000 228.8C1055.7 221 1111.3 179 1166.8 162C1222.3 145 1277.7 153 1333.2 171.8C1388.7 190.7 1444.3 220.3 1472.2 235.2L1500 250L1500 0L1472.2 0C1444.3 0 1388.7 0 1333.2 0C1277.7 0 1222.3 0 1166.8 0C1111.3 0 1055.7 0 1000 0C944.3 0 888.7 0 833.2 0C777.7 0 722.3 0 666.8 0C611.3 0 555.7 0 500 0C444.3 0 388.7 0 333.2 0C277.7 0 222.3 0 166.8 0C111.3 0 55.7 0 27.8 0L0 0Z" fill="#7a6087"></path><path d="M0 188L27.8 193.3C55.7 198.7 111.3 209.3 166.8 204.5C222.3 199.7 277.7 179.3 333.2 164.2C388.7 149 444.3 139 500 151C555.7 163 611.3 197 666.8 207.2C722.3 217.3 777.7 203.7 833.2 197.7C888.7 191.7 944.3 193.3 1000 191.3C1055.7 189.3 1111.3 183.7 1166.8 186.2C1222.3 188.7 1277.7 199.3 1333.2 188C1388.7 176.7 1444.3 143.3 1472.2 126.7L1500 110L1500 0L1472.2 0C1444.3 0 1388.7 0 1333.2 0C1277.7 0 1222.3 0 1166.8 0C1111.3 0 1055.7 0 1000 0C944.3 0 888.7 0 833.2 0C777.7 0 722.3 0 666.8 0C611.3 0 555.7 0 500 0C444.3 0 388.7 0 333.2 0C277.7 0 222.3 0 166.8 0C111.3 0 55.7 0 27.8 0L0 0Z" fill="#8f668b"></path><path d="M0 146L27.8 147.8C55.7 149.7 111.3 153.3 166.8 155.5C222.3 157.7 277.7 158.3 333.2 163.2C388.7 168 444.3 177 500 170.3C555.7 163.7 611.3 141.3 666.8 134.3C722.3 127.3 777.7 135.7 833.2 146.8C888.7 158 944.3 172 1000 169.8C1055.7 167.7 1111.3 149.3 1166.8 139.2C1222.3 129 1277.7 127 1333.2 132.2C1388.7 137.3 1444.3 149.7 1472.2 155.8L1500 162L1500 0L1472.2 0C1444.3 0 1388.7 0 1333.2 0C1277.7 0 1222.3 0 1166.8 0C1111.3 0 1055.7 0 1000 0C944.3 0 888.7 0 833.2 0C777.7 0 722.3 0 666.8 0C611.3 0 555.7 0 500 0C444.3 0 388.7 0 333.2 0C277.7 0 222.3 0 166.8 0C111.3 0 55.7 0 27.8 0L0 0Z" fill="#a56b8d"></path><path d="M0 116L27.8 112.5C55.7 109 111.3 102 166.8 108C222.3 114 277.7 133 333.2 128.5C388.7 124 444.3 96 500 87.5C555.7 79 611.3 90 666.8 104.7C722.3 119.3 777.7 137.7 833.2 132.2C888.7 126.7 944.3 97.3 1000 82.8C1055.7 68.3 1111.3 68.7 1166.8 77.2C1222.3 85.7 1277.7 102.3 1333.2 108.8C1388.7 115.3 1444.3 111.7 1472.2 109.8L1500 108L1500 0L1472.2 0C1444.3 0 1388.7 0 1333.2 0C1277.7 0 1222.3 0 1166.8 0C1111.3 0 1055.7 0 1000 0C944.3 0 888.7 0 833.2 0C777.7 0 722.3 0 666.8 0C611.3 0 555.7 0 500 0C444.3 0 388.7 0 333.2 0C277.7 0 222.3 0 166.8 0C111.3 0 55.7 0 27.8 0L0 0Z" fill="#b9718c"></path><path d="M0 94L27.8 91.3C55.7 88.7 111.3 83.3 166.8 87.5C222.3 91.7 277.7 105.3 333.2 105.7C388.7 106 444.3 93 500 84C555.7 75 611.3 70 666.8 74.5C722.3 79 777.7 93 833.2 103C888.7 113 944.3 119 1000 109C1055.7 99 1111.3 73 1166.8 62.2C1222.3 51.3 1277.7 55.7 1333.2 65.3C1388.7 75 1444.3 90 1472.2 97.5L1500 105L1500 0L1472.2 0C1444.3 0 1388.7 0 1333.2 0C1277.7 0 1222.3 0 1166.8 0C1111.3 0 1055.7 0 1000 0C944.3 0 888.7 0 833.2 0C777.7 0 722.3 0 666.8 0C611.3 0 555.7 0 500 0C444.3 0 388.7 0 333.2 0C277.7 0 222.3 0 166.8 0C111.3 0 55.7 0 27.8 0L0 0Z" fill="#cc7889"></path><path d="M0 48L27.8 53.5C55.7 59 111.3 70 166.8 70C222.3 70 277.7 59 333.2 58.7C388.7 58.3 444.3 68.7 500 69.3C555.7 70 611.3 61 666.8 59.8C722.3 58.7 777.7 65.3 833.2 64.3C888.7 63.3 944.3 54.7 1000 47.8C1055.7 41 1111.3 36 1166.8 37C1222.3 38 1277.7 45 1333.2 50.2C1388.7 55.3 1444.3 58.7 1472.2 60.3L1500 62L1500 0L1472.2 0C1444.3 0 1388.7 0 1333.2 0C1277.7 0 1222.3 0 1166.8 0C1111.3 0 1055.7 0 1000 0C944.3 0 888.7 0 833.2 0C777.7 0 722.3 0 666.8 0C611.3 0 555.7 0 500 0C444.3 0 388.7 0 333.2 0C277.7 0 222.3 0 166.8 0C111.3 0 55.7 0 27.8 0L0 0Z" fill="#dc8184"></path><path d="M0 62L27.8 61.8C55.7 61.7 111.3 61.3 166.8 59.5C222.3 57.7 277.7 54.3 333.2 49.2C388.7 44 444.3 37 500 32.2C555.7 27.3 611.3 24.7 666.8 21.5C722.3 18.3 777.7 14.7 833.2 13.8C888.7 13 944.3 15 1000 18.2C1055.7 21.3 1111.3 25.7 1166.8 29C1222.3 32.3 1277.7 34.7 1333.2 39.5C1388.7 44.3 1444.3 51.7 1472.2 55.3L1500 59L1500 0L1472.2 0C1444.3 0 1388.7 0 1333.2 0C1277.7 0 1222.3 0 1166.8 0C1111.3 0 1055.7 0 1000 0C944.3 0 888.7 0 833.2 0C777.7 0 722.3 0 666.8 0C611.3 0 555.7 0 500 0C444.3 0 388.7 0 333.2 0C277.7 0 222.3 0 166.8 0C111.3 0 55.7 0 27.8 0L0 0Z" fill="#e88c7d"></path></svg>