<svg id="visual" viewBox="0 0 2000 300" width="2000" height="300" xmlns="http://www.w3.org/2000/svg" xmlns:xlink="http://www.w3.org/1999/xlink" version="1.1"><path d="M0 90L14.5 106.5C29 123 58 156 87 168.7C116 181.3 145 173.7 174 158.2C203 142.7 232 119.3 261 112.8C290 106.3 319 116.7 348 115.7C377 114.7 406 102.3 435 92.2C464 82 493 74 522 82.7C551 91.3 580 116.7 609 139.2C638 161.7 667 181.3 696 192C725 202.7 754 204.3 783 182.5C812 160.7 841 115.3 870 111C899 106.7 928 143.3 956.8 151.5C985.7 159.7 1014.3 139.3 1043.2 134.7C1072 130 1101 141 1130 134C1159 127 1188 102 1217 103C1246 104 1275 131 1304 136.5C1333 142 1362 126 1391 121.3C1420 116.7 1449 123.3 1478 136.3C1507 149.3 1536 168.7 1565 173.3C1594 178 1623 168 1652 150C1681 132 1710 106 1739 103.7C1768 101.3 1797 122.7 1826 138.7C1855 154.7 1884 165.3 1913 165.5C1942 165.7 1971 155.3 1985.5 150.2L2000 145L2000 0L1985.5 0C1971 0 1942 0 1913 0C1884 0 1855 0 1826 0C1797 0 1768 0 1739 0C1710 0 1681 0 1652 0C1623 0 1594 0 1565 0C1536 0 1507 0 1478 0C1449 0 1420 0 1391 0C1362 0 1333 0 1304 0C1275 0 1246 0 1217 0C1188 0 1159 0 1130 0C1101 0 1072 0 1043.2 0C1014.3 0 985.7 0 956.8 0C928 0 899 0 870 0C841 0 812 0 783 0C754 0 725 0 696 0C667 0 638 0 609 0C580 0 551 0 522 0C493 0 464 0 435 0C406 0 377 0 348 0C319 0 290 0 261 0C232 0 203 0 174 0C145 0 116 0 87 0C58 0 29 0 14.5 0L0 0Z" fill="#515575"></path><path d="M0 159L14.5 162.5C29 166 58 173 87 163.2C116 153.3 145 126.7 174 121.3C203 116 232 132 261 126.7C290 121.3 319 94.7 348 87.5C377 80.3 406 92.7 435 99C464 105.3 493 105.7 522 107.8C551 110 580 114 609 122.7C638 131.3 667 144.7 696 154.7C725 164.7 754 171.3 783 158.5C812 145.7 841 113.3 870 93.2C899 73 928 65 956.8 81.2C985.7 97.3 1014.3 137.7 1043.2 150C1072 162.3 1101 146.7 1130 132C1159 117.3 1188 103.7 1217 92.3C1246 81 1275 72 1304 77.8C1333 83.7 1362 104.3 1391 122.2C1420 140 1449 155 1478 159.7C1507 164.3 1536 158.7 1565 142.5C1594 126.3 1623 99.7 1652 100.2C1681 100.7 1710 128.3 1739 143.8C1768 159.3 1797 162.7 1826 146.7C1855 130.7 1884 95.3 1913 86.8C1942 78.3 1971 96.7 1985.5 105.8L2000 115L2000 0L1985.5 0C1971 0 1942 0 1913 0C1884 0 1855 0 1826 0C1797 0 1768 0 1739 0C1710 0 1681 0 1652 0C1623 0 1594 0 1565 0C1536 0 1507 0 1478 0C1449 0 1420 0 1391 0C1362 0 1333 0 1304 0C1275 0 1246 0 1217 0C1188 0 1159 0 1130 0C1101 0 1072 0 1043.2 0C1014.3 0 985.7 0 956.8 0C928 0 899 0 870 0C841 0 812 0 783 0C754 0 725 0 696 0C667 0 638 0 609 0C580 0 551 0 522 0C493 0 464 0 435 0C406 0 377 0 348 0C319 0 290 0 261 0C232 0 203 0 174 0C145 0 116 0 87 0C58 0 29 0 14.5 0L0 0Z" fill="#5a5778"></path><path d="M0 143L14.5 138.8C29 134.7 58 126.3 87 118.3C116 110.3 145 102.7 174 98.5C203 94.3 232 93.7 261 93.3C290 93 319 93 348 92C377 91 406 89 435 95.2C464 101.3 493 115.7 522 127.2C551 138.7 580 147.3 609 133.8C638 120.3 667 84.7 696 73.3C725 62 754 75 783 86.7C812 98.3 841 108.7 870 103.8C899 99 928 79 956.8 74.8C985.7 70.7 1014.3 82.3 1043.2 98.8C1072 115.3 1101 136.7 1130 134.3C1159 132 1188 106 1217 88.5C1246 71 1275 62 1304 59.5C1333 57 1362 61 1391 73.2C1420 85.3 1449 105.7 1478 102.5C1507 99.3 1536 72.7 1565 75.7C1594 78.7 1623 111.3 1652 118C1681 124.7 1710 105.3 1739 98.2C1768 91 1797 96 1826 107C1855 118 1884 135 1913 134.2C1942 133.3 1971 114.7 1985.5 105.3L2000 96L2000 0L1985.5 0C1971 0 1942 0 1913 0C1884 0 1855 0 1826 0C1797 0 1768 0 1739 0C1710 0 1681 0 1652 0C1623 0 1594 0 1565 0C1536 0 1507 0 1478 0C1449 0 1420 0 1391 0C1362 0 1333 0 1304 0C1275 0 1246 0 1217 0C1188 0 1159 0 1130 0C1101 0 1072 0 1043.2 0C1014.3 0 985.7 0 956.8 0C928 0 899 0 870 0C841 0 812 0 783 0C754 0 725 0 696 0C667 0 638 0 609 0C580 0 551 0 522 0C493 0 464 0 435 0C406 0 377 0 348 0C319 0 290 0 261 0C232 0 203 0 174 0C145 0 116 0 87 0C58 0 29 0 14.5 0L0 0Z" fill="#64587a"></path><path d="M0 67L14.5 76.7C29 86.3 58 105.7 87 104C116 102.3 145 79.7 174 71.7C203 63.7 232 70.3 261 78.2C290 86 319 95 348 91.3C377 87.7 406 71.3 435 73.7C464 76 493 97 522 100C551 103 580 88 609 83.5C638 79 667 85 696 86.8C725 88.7 754 86.3 783 82.2C812 78 841 72 870 68.8C899 65.7 928 65.3 956.8 70.2C985.7 75 1014.3 85 1043.2 92.7C1072 100.3 1101 105.7 1130 111.8C1159 118 1188 125 1217 116.2C1246 107.3 1275 82.7 1304 78.7C1333 74.7 1362 91.3 1391 100.2C1420 109 1449 110 1478 98.2C1507 86.3 1536 61.7 1565 62.8C1594 64 1623 91 1652 97.2C1681 103.3 1710 88.7 1739 81.5C1768 74.3 1797 74.7 1826 73C1855 71.3 1884 67.7 1913 70.7C1942 73.7 1971 83.3 1985.5 88.2L2000 93L2000 0L1985.5 0C1971 0 1942 0 1913 0C1884 0 1855 0 1826 0C1797 0 1768 0 1739 0C1710 0 1681 0 1652 0C1623 0 1594 0 1565 0C1536 0 1507 0 1478 0C1449 0 1420 0 1391 0C1362 0 1333 0 1304 0C1275 0 1246 0 1217 0C1188 0 1159 0 1130 0C1101 0 1072 0 1043.2 0C1014.3 0 985.7 0 956.8 0C928 0 899 0 870 0C841 0 812 0 783 0C754 0 725 0 696 0C667 0 638 0 609 0C580 0 551 0 522 0C493 0 464 0 435 0C406 0 377 0 348 0C319 0 290 0 261 0C232 0 203 0 174 0C145 0 116 0 87 0C58 0 29 0 14.5 0L0 0Z" fill="#6d597b"></path><path d="M0 108L14.5 95.5C29 83 58 58 87 53C116 48 145 63 174 76.2C203 89.3 232 100.7 261 99.2C290 97.7 319 83.3 348 74.3C377 65.3 406 61.7 435 64.7C464 67.7 493 77.3 522 78.3C551 79.3 580 71.7 609 63.2C638 54.7 667 45.3 696 48.3C725 51.3 754 66.7 783 79.5C812 92.3 841 102.7 870 101.8C899 101 928 89 956.8 76.3C985.7 63.7 1014.3 50.3 1043.2 46.2C1072 42 1101 47 1130 55.8C1159 64.7 1188 77.3 1217 85.5C1246 93.7 1275 97.3 1304 93.7C1333 90 1362 79 1391 73.2C1420 67.3 1449 66.7 1478 59.8C1507 53 1536 40 1565 37.5C1594 35 1623 43 1652 44.7C1681 46.3 1710 41.7 1739 50C1768 58.3 1797 79.7 1826 91C1855 102.3 1884 103.7 1913 95.2C1942 86.7 1971 68.3 1985.5 59.2L2000 50L2000 0L1985.5 0C1971 0 1942 0 1913 0C1884 0 1855 0 1826 0C1797 0 1768 0 1739 0C1710 0 1681 0 1652 0C1623 0 1594 0 1565 0C1536 0 1507 0 1478 0C1449 0 1420 0 1391 0C1362 0 1333 0 1304 0C1275 0 1246 0 1217 0C1188 0 1159 0 1130 0C1101 0 1072 0 1043.2 0C1014.3 0 985.7 0 956.8 0C928 0 899 0 870 0C841 0 812 0 783 0C754 0 725 0 696 0C667 0 638 0 609 0C580 0 551 0 522 0C493 0 464 0 435 0C406 0 377 0 348 0C319 0 290 0 261 0C232 0 203 0 174 0C145 0 116 0 87 0C58 0 29 0 14.5 0L0 0Z" fill="#775b7b"></path><path d="M0 75L14.5 73C29 71 58 67 87 69.2C116 71.3 145 79.7 174 78.3C203 77 232 66 261 64C290 62 319 69 348 71C377 73 406 70 435 62.3C464 54.7 493 42.3 522 43.2C551 44 580 58 609 57.7C638 57.3 667 42.7 696 34.3C725 26 754 24 783 29.7C812 35.3 841 48.7 870 55.2C899 61.7 928 61.3 956.8 63C985.7 64.7 1014.3 68.3 1043.2 70.8C1072 73.3 1101 74.7 1130 77.7C1159 80.7 1188 85.3 1217 85.5C1246 85.7 1275 81.3 1304 69.5C1333 57.7 1362 38.3 1391 37.7C1420 37 1449 55 1478 56.2C1507 57.3 1536 41.7 1565 32.5C1594 23.3 1623 20.7 1652 22.3C1681 24 1710 30 1739 39.8C1768 49.7 1797 63.3 1826 68.8C1855 74.3 1884 71.7 1913 67.2C1942 62.7 1971 56.3 1985.5 53.2L2000 50L2000 0L1985.5 0C1971 0 1942 0 1913 0C1884 0 1855 0 1826 0C1797 0 1768 0 1739 0C1710 0 1681 0 1652 0C1623 0 1594 0 1565 0C1536 0 1507 0 1478 0C1449 0 1420 0 1391 0C1362 0 1333 0 1304 0C1275 0 1246 0 1217 0C1188 0 1159 0 1130 0C1101 0 1072 0 1043.2 0C1014.3 0 985.7 0 956.8 0C928 0 899 0 870 0C841 0 812 0 783 0C754 0 725 0 696 0C667 0 638 0 609 0C580 0 551 0 522 0C493 0 464 0 435 0C406 0 377 0 348 0C319 0 290 0 261 0C232 0 203 0 174 0C145 0 116 0 87 0C58 0 29 0 14.5 0L0 0Z" fill="#805c7b"></path><path d="M0 66L14.5 60.2C29 54.3 58 42.7 87 35.8C116 29 145 27 174 32.5C203 38 232 51 261 48.3C290 45.7 319 27.3 348 22.7C377 18 406 27 435 31.5C464 36 493 36 522 34.8C551 33.7 580 31.3 609 34.8C638 38.3 667 47.7 696 54C725 60.3 754 63.7 783 59.8C812 56 841 45 870 39.3C899 33.7 928 33.3 956.8 34.2C985.7 35 1014.3 37 1043.2 42C1072 47 1101 55 1130 57.8C1159 60.7 1188 58.3 1217 51.3C1246 44.3 1275 32.7 1304 32.8C1333 33 1362 45 1391 45.7C1420 46.3 1449 35.7 1478 32.7C1507 29.7 1536 34.3 1565 34C1594 33.7 1623 28.3 1652 29.3C1681 30.3 1710 37.7 1739 40C1768 42.3 1797 39.7 1826 37.5C1855 35.3 1884 33.7 1913 32C1942 30.3 1971 28.7 1985.5 27.8L2000 27L2000 0L1985.5 0C1971 0 1942 0 1913 0C1884 0 1855 0 1826 0C1797 0 1768 0 1739 0C1710 0 1681 0 1652 0C1623 0 1594 0 1565 0C1536 0 1507 0 1478 0C1449 0 1420 0 1391 0C1362 0 1333 0 1304 0C1275 0 1246 0 1217 0C1188 0 1159 0 1130 0C1101 0 1072 0 1043.2 0C1014.3 0 985.7 0 956.8 0C928 0 899 0 870 0C841 0 812 0 783 0C754 0 725 0 696 0C667 0 638 0 609 0C580 0 551 0 522 0C493 0 464 0 435 0C406 0 377 0 348 0C319 0 290 0 261 0C232 0 203 0 174 0C145 0 116 0 87 0C58 0 29 0 14.5 0L0 0Z" fill="#895d7a"></path><path d="M0 17L14.5 21.2C29 25.3 58 33.7 87 32C116 30.3 145 18.7 174 17.7C203 16.7 232 26.3 261 30.5C290 34.7 319 33.3 348 33.7C377 34 406 36 435 31C464 26 493 14 522 14.2C551 14.3 580 26.7 609 30.5C638 34.3 667 29.7 696 30.2C725 30.7 754 36.3 783 34.3C812 32.3 841 22.7 870 17.7C899 12.7 928 12.3 956.8 15.2C985.7 18 1014.3 24 1043.2 27.7C1072 31.3 1101 32.7 1130 32.2C1159 31.7 1188 29.3 1217 25.7C1246 22 1275 17 1304 18.2C1333 19.3 1362 26.7 1391 30.5C1420 34.3 1449 34.7 1478 32.7C1507 30.7 1536 26.3 1565 26.8C1594 27.3 1623 32.7 1652 32.3C1681 32 1710 26 1739 26.7C1768 27.3 1797 34.7 1826 38.8C1855 43 1884 44 1913 37.3C1942 30.7 1971 16.3 1985.5 9.2L2000 2L2000 0L1985.5 0C1971 0 1942 0 1913 0C1884 0 1855 0 1826 0C1797 0 1768 0 1739 0C1710 0 1681 0 1652 0C1623 0 1594 0 1565 0C1536 0 1507 0 1478 0C1449 0 1420 0 1391 0C1362 0 1333 0 1304 0C1275 0 1246 0 1217 0C1188 0 1159 0 1130 0C1101 0 1072 0 1043.2 0C1014.3 0 985.7 0 956.8 0C928 0 899 0 870 0C841 0 812 0 783 0C754 0 725 0 696 0C667 0 638 0 609 0C580 0 551 0 522 0C493 0 464 0 435 0C406 0 377 0 348 0C319 0 290 0 261 0C232 0 203 0 174 0C145 0 116 0 87 0C58 0 29 0 14.5 0L0 0Z" fill="#915f78"></path></svg>