<svg id="visual" viewBox="0 0 2000 1000" width="2000" height="1000" xmlns="http://www.w3.org/2000/svg" xmlns:xlink="http://www.w3.org/1999/xlink" version="1.1"><path d="M0 483L14.5 435.5C29 388 58 293 87 269.7C116 246.3 145 294.7 174 322.3C203 350 232 357 261 382.5C290 408 319 452 348 462.2C377 472.3 406 448.7 435 452.8C464 457 493 489 522 472.3C551 455.7 580 390.3 609 405.5C638 420.7 667 516.3 696 505.3C725 494.3 754 376.7 783 328.7C812 280.7 841 302.3 870 350.2C899 398 928 472 956.8 523C985.7 574 1014.3 602 1043.2 567.5C1072 533 1101 436 1130 388.7C1159 341.3 1188 343.7 1217 386.7C1246 429.7 1275 513.3 1304 506.2C1333 499 1362 401 1391 357.8C1420 314.7 1449 326.3 1478 372.3C1507 418.3 1536 498.7 1565 537.3C1594 576 1623 573 1652 534.2C1681 495.3 1710 420.7 1739 377C1768 333.3 1797 320.7 1826 369C1855 417.3 1884 526.7 1913 497.3C1942 468 1971 300 1985.5 216L2000 132L2000 1001L1985.5 1001C1971 1001 1942 1001 1913 1001C1884 1001 1855 1001 1826 1001C1797 1001 1768 1001 1739 1001C1710 1001 1681 1001 1652 1001C1623 1001 1594 1001 1565 1001C1536 1001 1507 1001 1478 1001C1449 1001 1420 1001 1391 1001C1362 1001 1333 1001 1304 1001C1275 1001 1246 1001 1217 1001C1188 1001 1159 1001 1130 1001C1101 1001 1072 1001 1043.2 1001C1014.3 1001 985.7 1001 956.8 1001C928 1001 899 1001 870 1001C841 1001 812 1001 783 1001C754 1001 725 1001 696 1001C667 1001 638 1001 609 1001C580 1001 551 1001 522 1001C493 1001 464 1001 435 1001C406 1001 377 1001 348 1001C319 1001 290 1001 261 1001C232 1001 203 1001 174 1001C145 1001 116 1001 87 1001C58 1001 29 1001 14.5 1001L0 1001Z" fill="#515575"></path><path d="M0 214L14.5 275.8C29 337.7 58 461.3 87 492C116 522.7 145 460.3 174 393.2C203 326 232 254 261 275.3C290 296.7 319 411.3 348 489.5C377 567.7 406 609.3 435 600.7C464 592 493 533 522 455C551 377 580 280 609 239.5C638 199 667 215 696 240C725 265 754 299 783 337.2C812 375.3 841 417.7 870 390.3C899 363 928 266 956.8 304.3C985.7 342.7 1014.3 516.3 1043.2 589.5C1072 662.7 1101 635.3 1130 565.8C1159 496.3 1188 384.7 1217 383.3C1246 382 1275 491 1304 514.3C1333 537.7 1362 475.3 1391 421.5C1420 367.7 1449 322.3 1478 293.3C1507 264.3 1536 251.7 1565 249.3C1594 247 1623 255 1652 262.5C1681 270 1710 277 1739 330.2C1768 383.3 1797 482.7 1826 499.8C1855 517 1884 452 1913 416.8C1942 381.7 1971 376.3 1985.5 373.7L2000 371L2000 1001L1985.5 1001C1971 1001 1942 1001 1913 1001C1884 1001 1855 1001 1826 1001C1797 1001 1768 1001 1739 1001C1710 1001 1681 1001 1652 1001C1623 1001 1594 1001 1565 1001C1536 1001 1507 1001 1478 1001C1449 1001 1420 1001 1391 1001C1362 1001 1333 1001 1304 1001C1275 1001 1246 1001 1217 1001C1188 1001 1159 1001 1130 1001C1101 1001 1072 1001 1043.2 1001C1014.3 1001 985.7 1001 956.8 1001C928 1001 899 1001 870 1001C841 1001 812 1001 783 1001C754 1001 725 1001 696 1001C667 1001 638 1001 609 1001C580 1001 551 1001 522 1001C493 1001 464 1001 435 1001C406 1001 377 1001 348 1001C319 1001 290 1001 261 1001C232 1001 203 1001 174 1001C145 1001 116 1001 87 1001C58 1001 29 1001 14.5 1001L0 1001Z" fill="#625b7d"></path><path d="M0 277L14.5 304.7C29 332.3 58 387.7 87 427.7C116 467.7 145 492.3 174 467.8C203 443.3 232 369.7 261 399.2C290 428.7 319 561.3 348 604C377 646.7 406 599.3 435 568.7C464 538 493 524 522 500C551 476 580 442 609 477.5C638 513 667 618 696 635C725 652 754 581 783 557.7C812 534.3 841 558.7 870 592.5C899 626.3 928 669.7 956.8 654.8C985.7 640 1014.3 567 1043.2 572.8C1072 578.7 1101 663.3 1130 669.8C1159 676.3 1188 604.7 1217 604.3C1246 604 1275 675 1304 685.5C1333 696 1362 646 1391 594.8C1420 543.7 1449 491.3 1478 490.5C1507 489.7 1536 540.3 1565 556.7C1594 573 1623 555 1652 555.5C1681 556 1710 575 1739 530.3C1768 485.7 1797 377.3 1826 383.7C1855 390 1884 511 1913 516C1942 521 1971 410 1985.5 354.5L2000 299L2000 1001L1985.5 1001C1971 1001 1942 1001 1913 1001C1884 1001 1855 1001 1826 1001C1797 1001 1768 1001 1739 1001C1710 1001 1681 1001 1652 1001C1623 1001 1594 1001 1565 1001C1536 1001 1507 1001 1478 1001C1449 1001 1420 1001 1391 1001C1362 1001 1333 1001 1304 1001C1275 1001 1246 1001 1217 1001C1188 1001 1159 1001 1130 1001C1101 1001 1072 1001 1043.2 1001C1014.3 1001 985.7 1001 956.8 1001C928 1001 899 1001 870 1001C841 1001 812 1001 783 1001C754 1001 725 1001 696 1001C667 1001 638 1001 609 1001C580 1001 551 1001 522 1001C493 1001 464 1001 435 1001C406 1001 377 1001 348 1001C319 1001 290 1001 261 1001C232 1001 203 1001 174 1001C145 1001 116 1001 87 1001C58 1001 29 1001 14.5 1001L0 1001Z" fill="#746183"></path><path d="M0 690L14.5 670C29 650 58 610 87 574.8C116 539.7 145 509.3 174 485C203 460.7 232 442.3 261 473.3C290 504.3 319 584.7 348 590.5C377 596.3 406 527.7 435 522.2C464 516.7 493 574.3 522 614.5C551 654.7 580 677.3 609 641.8C638 606.3 667 512.7 696 493C725 473.3 754 527.7 783 561.3C812 595 841 608 870 623C899 638 928 655 956.8 605C985.7 555 1014.3 438 1043.2 441.8C1072 445.7 1101 570.3 1130 615.5C1159 660.7 1188 626.3 1217 633C1246 639.7 1275 687.3 1304 657.3C1333 627.3 1362 519.7 1391 501C1420 482.3 1449 552.7 1478 537.2C1507 521.7 1536 420.3 1565 370.2C1594 320 1623 321 1652 324.5C1681 328 1710 334 1739 335.2C1768 336.3 1797 332.7 1826 351.2C1855 369.7 1884 410.3 1913 431.3C1942 452.3 1971 453.7 1985.5 454.3L2000 455L2000 1001L1985.5 1001C1971 1001 1942 1001 1913 1001C1884 1001 1855 1001 1826 1001C1797 1001 1768 1001 1739 1001C1710 1001 1681 1001 1652 1001C1623 1001 1594 1001 1565 1001C1536 1001 1507 1001 1478 1001C1449 1001 1420 1001 1391 1001C1362 1001 1333 1001 1304 1001C1275 1001 1246 1001 1217 1001C1188 1001 1159 1001 1130 1001C1101 1001 1072 1001 1043.2 1001C1014.3 1001 985.7 1001 956.8 1001C928 1001 899 1001 870 1001C841 1001 812 1001 783 1001C754 1001 725 1001 696 1001C667 1001 638 1001 609 1001C580 1001 551 1001 522 1001C493 1001 464 1001 435 1001C406 1001 377 1001 348 1001C319 1001 290 1001 261 1001C232 1001 203 1001 174 1001C145 1001 116 1001 87 1001C58 1001 29 1001 14.5 1001L0 1001Z" fill="#856688"></path><path d="M0 773L14.5 753.5C29 734 58 695 87 629.3C116 563.7 145 471.3 174 446C203 420.7 232 462.3 261 510.7C290 559 319 614 348 601C377 588 406 507 435 503.8C464 500.7 493 575.3 522 605.5C551 635.7 580 621.3 609 587.8C638 554.3 667 501.7 696 528.8C725 556 754 663 783 668.3C812 673.7 841 577.3 870 524.7C899 472 928 463 956.8 489.7C985.7 516.3 1014.3 578.7 1043.2 585.8C1072 593 1101 545 1130 547.5C1159 550 1188 603 1217 624.7C1246 646.3 1275 636.7 1304 647.5C1333 658.3 1362 689.7 1391 669.5C1420 649.3 1449 577.7 1478 528.3C1507 479 1536 452 1565 444.2C1594 436.3 1623 447.7 1652 451C1681 454.3 1710 449.7 1739 500.3C1768 551 1797 657 1826 692.2C1855 727.3 1884 691.7 1913 677.5C1942 663.3 1971 670.7 1985.5 674.3L2000 678L2000 1001L1985.5 1001C1971 1001 1942 1001 1913 1001C1884 1001 1855 1001 1826 1001C1797 1001 1768 1001 1739 1001C1710 1001 1681 1001 1652 1001C1623 1001 1594 1001 1565 1001C1536 1001 1507 1001 1478 1001C1449 1001 1420 1001 1391 1001C1362 1001 1333 1001 1304 1001C1275 1001 1246 1001 1217 1001C1188 1001 1159 1001 1130 1001C1101 1001 1072 1001 1043.2 1001C1014.3 1001 985.7 1001 956.8 1001C928 1001 899 1001 870 1001C841 1001 812 1001 783 1001C754 1001 725 1001 696 1001C667 1001 638 1001 609 1001C580 1001 551 1001 522 1001C493 1001 464 1001 435 1001C406 1001 377 1001 348 1001C319 1001 290 1001 261 1001C232 1001 203 1001 174 1001C145 1001 116 1001 87 1001C58 1001 29 1001 14.5 1001L0 1001Z" fill="#966c8c"></path><path d="M0 786L14.5 775.7C29 765.3 58 744.7 87 696.5C116 648.3 145 572.7 174 581.7C203 590.7 232 684.3 261 698.8C290 713.3 319 648.7 348 632.5C377 616.3 406 648.7 435 648.2C464 647.7 493 614.3 522 601C551 587.7 580 594.3 609 600.3C638 606.3 667 611.7 696 625C725 638.3 754 659.7 783 676.5C812 693.3 841 705.7 870 673.2C899 640.7 928 563.3 956.8 566.5C985.7 569.7 1014.3 653.3 1043.2 682.3C1072 711.3 1101 685.7 1130 680C1159 674.3 1188 688.7 1217 706.8C1246 725 1275 747 1304 737.8C1333 728.7 1362 688.3 1391 681.5C1420 674.7 1449 701.3 1478 689.8C1507 678.3 1536 628.7 1565 641.7C1594 654.7 1623 730.3 1652 715.2C1681 700 1710 594 1739 580.5C1768 567 1797 646 1826 669.8C1855 693.7 1884 662.3 1913 632C1942 601.7 1971 572.3 1985.5 557.7L2000 543L2000 1001L1985.5 1001C1971 1001 1942 1001 1913 1001C1884 1001 1855 1001 1826 1001C1797 1001 1768 1001 1739 1001C1710 1001 1681 1001 1652 1001C1623 1001 1594 1001 1565 1001C1536 1001 1507 1001 1478 1001C1449 1001 1420 1001 1391 1001C1362 1001 1333 1001 1304 1001C1275 1001 1246 1001 1217 1001C1188 1001 1159 1001 1130 1001C1101 1001 1072 1001 1043.2 1001C1014.3 1001 985.7 1001 956.8 1001C928 1001 899 1001 870 1001C841 1001 812 1001 783 1001C754 1001 725 1001 696 1001C667 1001 638 1001 609 1001C580 1001 551 1001 522 1001C493 1001 464 1001 435 1001C406 1001 377 1001 348 1001C319 1001 290 1001 261 1001C232 1001 203 1001 174 1001C145 1001 116 1001 87 1001C58 1001 29 1001 14.5 1001L0 1001Z" fill="#a7738e"></path><path d="M0 664L14.5 649.3C29 634.7 58 605.3 87 610.8C116 616.3 145 656.7 174 694.7C203 732.7 232 768.3 261 754C290 739.7 319 675.3 348 647.7C377 620 406 629 435 639.5C464 650 493 662 522 664.8C551 667.7 580 661.3 609 666.2C638 671 667 687 696 677.2C725 667.3 754 631.7 783 601.3C812 571 841 546 870 571.7C899 597.3 928 673.7 956.8 692.2C985.7 710.7 1014.3 671.3 1043.2 670.3C1072 669.3 1101 706.7 1130 690.7C1159 674.7 1188 605.3 1217 619.7C1246 634 1275 732 1304 755.3C1333 778.7 1362 727.3 1391 697C1420 666.7 1449 657.3 1478 638C1507 618.7 1536 589.3 1565 585.3C1594 581.3 1623 602.7 1652 598.8C1681 595 1710 566 1739 601.3C1768 636.7 1797 736.3 1826 778.5C1855 820.7 1884 805.3 1913 777.2C1942 749 1971 708 1985.5 687.5L2000 667L2000 1001L1985.5 1001C1971 1001 1942 1001 1913 1001C1884 1001 1855 1001 1826 1001C1797 1001 1768 1001 1739 1001C1710 1001 1681 1001 1652 1001C1623 1001 1594 1001 1565 1001C1536 1001 1507 1001 1478 1001C1449 1001 1420 1001 1391 1001C1362 1001 1333 1001 1304 1001C1275 1001 1246 1001 1217 1001C1188 1001 1159 1001 1130 1001C1101 1001 1072 1001 1043.2 1001C1014.3 1001 985.7 1001 956.8 1001C928 1001 899 1001 870 1001C841 1001 812 1001 783 1001C754 1001 725 1001 696 1001C667 1001 638 1001 609 1001C580 1001 551 1001 522 1001C493 1001 464 1001 435 1001C406 1001 377 1001 348 1001C319 1001 290 1001 261 1001C232 1001 203 1001 174 1001C145 1001 116 1001 87 1001C58 1001 29 1001 14.5 1001L0 1001Z" fill="#b77a8e"></path><path d="M0 668L14.5 681C29 694 58 720 87 742.8C116 765.7 145 785.3 174 792.7C203 800 232 795 261 776.7C290 758.3 319 726.7 348 728.2C377 729.7 406 764.3 435 763.7C464 763 493 727 522 729C551 731 580 771 609 799.2C638 827.3 667 843.7 696 825.3C725 807 754 754 783 746.8C812 739.7 841 778.3 870 772C899 765.7 928 714.3 956.8 714.3C985.7 714.3 1014.3 765.7 1043.2 790.8C1072 816 1101 815 1130 818.2C1159 821.3 1188 828.7 1217 829.5C1246 830.3 1275 824.7 1304 823.3C1333 822 1362 825 1391 788.3C1420 751.7 1449 675.3 1478 650C1507 624.7 1536 650.3 1565 669C1594 687.7 1623 699.3 1652 723.2C1681 747 1710 783 1739 762.7C1768 742.3 1797 665.7 1826 640C1855 614.3 1884 639.7 1913 654.3C1942 669 1971 673 1985.5 675L2000 677L2000 1001L1985.5 1001C1971 1001 1942 1001 1913 1001C1884 1001 1855 1001 1826 1001C1797 1001 1768 1001 1739 1001C1710 1001 1681 1001 1652 1001C1623 1001 1594 1001 1565 1001C1536 1001 1507 1001 1478 1001C1449 1001 1420 1001 1391 1001C1362 1001 1333 1001 1304 1001C1275 1001 1246 1001 1217 1001C1188 1001 1159 1001 1130 1001C1101 1001 1072 1001 1043.2 1001C1014.3 1001 985.7 1001 956.8 1001C928 1001 899 1001 870 1001C841 1001 812 1001 783 1001C754 1001 725 1001 696 1001C667 1001 638 1001 609 1001C580 1001 551 1001 522 1001C493 1001 464 1001 435 1001C406 1001 377 1001 348 1001C319 1001 290 1001 261 1001C232 1001 203 1001 174 1001C145 1001 116 1001 87 1001C58 1001 29 1001 14.5 1001L0 1001Z" fill="#c5828e"></path><path d="M0 887L14.5 887C29 887 58 887 87 878.7C116 870.3 145 853.7 174 838.7C203 823.7 232 810.3 261 810.7C290 811 319 825 348 812C377 799 406 759 435 759.7C464 760.3 493 801.7 522 813.7C551 825.7 580 808.3 609 815.3C638 822.3 667 853.7 696 844C725 834.3 754 783.7 783 770C812 756.3 841 779.7 870 795.3C899 811 928 819 956.8 821C985.7 823 1014.3 819 1043.2 802C1072 785 1101 755 1130 741.7C1159 728.3 1188 731.7 1217 752.8C1246 774 1275 813 1304 807.3C1333 801.7 1362 751.3 1391 757.5C1420 763.7 1449 826.3 1478 827.3C1507 828.3 1536 767.7 1565 766.3C1594 765 1623 823 1652 815.8C1681 808.7 1710 736.3 1739 705.3C1768 674.3 1797 684.7 1826 722C1855 759.3 1884 823.7 1913 849.8C1942 876 1971 864 1985.5 858L2000 852L2000 1001L1985.5 1001C1971 1001 1942 1001 1913 1001C1884 1001 1855 1001 1826 1001C1797 1001 1768 1001 1739 1001C1710 1001 1681 1001 1652 1001C1623 1001 1594 1001 1565 1001C1536 1001 1507 1001 1478 1001C1449 1001 1420 1001 1391 1001C1362 1001 1333 1001 1304 1001C1275 1001 1246 1001 1217 1001C1188 1001 1159 1001 1130 1001C1101 1001 1072 1001 1043.2 1001C1014.3 1001 985.7 1001 956.8 1001C928 1001 899 1001 870 1001C841 1001 812 1001 783 1001C754 1001 725 1001 696 1001C667 1001 638 1001 609 1001C580 1001 551 1001 522 1001C493 1001 464 1001 435 1001C406 1001 377 1001 348 1001C319 1001 290 1001 261 1001C232 1001 203 1001 174 1001C145 1001 116 1001 87 1001C58 1001 29 1001 14.5 1001L0 1001Z" fill="#d18b8d"></path><path d="M0 845L14.5 860C29 875 58 905 87 901.5C116 898 145 861 174 841.2C203 821.3 232 818.7 261 804.5C290 790.3 319 764.7 348 770.5C377 776.3 406 813.7 435 819.3C464 825 493 799 522 809C551 819 580 865 609 868.2C638 871.3 667 831.7 696 820.7C725 809.7 754 827.3 783 842C812 856.7 841 868.3 870 864.8C899 861.3 928 842.7 956.8 852.3C985.7 862 1014.3 900 1043.2 896.8C1072 893.7 1101 849.3 1130 840.8C1159 832.3 1188 859.7 1217 860.7C1246 861.7 1275 836.3 1304 813.5C1333 790.7 1362 770.3 1391 757.7C1420 745 1449 740 1478 757.8C1507 775.7 1536 816.3 1565 833.3C1594 850.3 1623 843.7 1652 836.3C1681 829 1710 821 1739 808.7C1768 796.3 1797 779.7 1826 800.7C1855 821.7 1884 880.3 1913 887C1942 893.7 1971 848.3 1985.5 825.7L2000 803L2000 1001L1985.5 1001C1971 1001 1942 1001 1913 1001C1884 1001 1855 1001 1826 1001C1797 1001 1768 1001 1739 1001C1710 1001 1681 1001 1652 1001C1623 1001 1594 1001 1565 1001C1536 1001 1507 1001 1478 1001C1449 1001 1420 1001 1391 1001C1362 1001 1333 1001 1304 1001C1275 1001 1246 1001 1217 1001C1188 1001 1159 1001 1130 1001C1101 1001 1072 1001 1043.2 1001C1014.3 1001 985.7 1001 956.8 1001C928 1001 899 1001 870 1001C841 1001 812 1001 783 1001C754 1001 725 1001 696 1001C667 1001 638 1001 609 1001C580 1001 551 1001 522 1001C493 1001 464 1001 435 1001C406 1001 377 1001 348 1001C319 1001 290 1001 261 1001C232 1001 203 1001 174 1001C145 1001 116 1001 87 1001C58 1001 29 1001 14.5 1001L0 1001Z" fill="#db958c"></path><path d="M0 843L14.5 837.2C29 831.3 58 819.7 87 839C116 858.3 145 908.7 174 929.3C203 950 232 941 261 918.5C290 896 319 860 348 857.2C377 854.3 406 884.7 435 903.3C464 922 493 929 522 925.8C551 922.7 580 909.3 609 913.5C638 917.7 667 939.3 696 948C725 956.7 754 952.3 783 941C812 929.7 841 911.3 870 887C899 862.7 928 832.3 956.8 820.8C985.7 809.3 1014.3 816.7 1043.2 831.7C1072 846.7 1101 869.3 1130 882.8C1159 896.3 1188 900.7 1217 894.2C1246 887.7 1275 870.3 1304 858C1333 845.7 1362 838.3 1391 845.5C1420 852.7 1449 874.3 1478 896C1507 917.7 1536 939.3 1565 944.2C1594 949 1623 937 1652 929.3C1681 921.7 1710 918.3 1739 909.3C1768 900.3 1797 885.7 1826 867.3C1855 849 1884 827 1913 833.5C1942 840 1971 875 1985.5 892.5L2000 910L2000 1001L1985.5 1001C1971 1001 1942 1001 1913 1001C1884 1001 1855 1001 1826 1001C1797 1001 1768 1001 1739 1001C1710 1001 1681 1001 1652 1001C1623 1001 1594 1001 1565 1001C1536 1001 1507 1001 1478 1001C1449 1001 1420 1001 1391 1001C1362 1001 1333 1001 1304 1001C1275 1001 1246 1001 1217 1001C1188 1001 1159 1001 1130 1001C1101 1001 1072 1001 1043.2 1001C1014.3 1001 985.7 1001 956.8 1001C928 1001 899 1001 870 1001C841 1001 812 1001 783 1001C754 1001 725 1001 696 1001C667 1001 638 1001 609 1001C580 1001 551 1001 522 1001C493 1001 464 1001 435 1001C406 1001 377 1001 348 1001C319 1001 290 1001 261 1001C232 1001 203 1001 174 1001C145 1001 116 1001 87 1001C58 1001 29 1001 14.5 1001L0 1001Z" fill="#e4a08b"></path><path d="M0 994L14.5 993.8C29 993.7 58 993.3 87 984.7C116 976 145 959 174 958C203 957 232 972 261 974C290 976 319 965 348 953.7C377 942.3 406 930.7 435 915.3C464 900 493 881 522 872.2C551 863.3 580 864.7 609 873.8C638 883 667 900 696 906.3C725 912.7 754 908.3 783 914C812 919.7 841 935.3 870 947.5C899 959.7 928 968.3 956.8 973C985.7 977.7 1014.3 978.3 1043.2 971.5C1072 964.7 1101 950.3 1130 943C1159 935.7 1188 935.3 1217 945.3C1246 955.3 1275 975.7 1304 974.3C1333 973 1362 950 1391 939.7C1420 929.3 1449 931.7 1478 938C1507 944.3 1536 954.7 1565 960.5C1594 966.3 1623 967.7 1652 961.2C1681 954.7 1710 940.3 1739 928C1768 915.7 1797 905.3 1826 914.5C1855 923.7 1884 952.3 1913 953.7C1942 955 1971 929 1985.5 916L2000 903L2000 1001L1985.5 1001C1971 1001 1942 1001 1913 1001C1884 1001 1855 1001 1826 1001C1797 1001 1768 1001 1739 1001C1710 1001 1681 1001 1652 1001C1623 1001 1594 1001 1565 1001C1536 1001 1507 1001 1478 1001C1449 1001 1420 1001 1391 1001C1362 1001 1333 1001 1304 1001C1275 1001 1246 1001 1217 1001C1188 1001 1159 1001 1130 1001C1101 1001 1072 1001 1043.2 1001C1014.3 1001 985.7 1001 956.8 1001C928 1001 899 1001 870 1001C841 1001 812 1001 783 1001C754 1001 725 1001 696 1001C667 1001 638 1001 609 1001C580 1001 551 1001 522 1001C493 1001 464 1001 435 1001C406 1001 377 1001 348 1001C319 1001 290 1001 261 1001C232 1001 203 1001 174 1001C145 1001 116 1001 87 1001C58 1001 29 1001 14.5 1001L0 1001Z" fill="#eaac8b"></path></svg>