<svg id="visual" viewBox="0 0 1500 600" width="1500" height="600" xmlns="http://www.w3.org/2000/svg" xmlns:xlink="http://www.w3.org/1999/xlink" version="1.1"><path d="M0 550L11.3 543.7C22.7 537.3 45.3 524.7 68 463.7C90.7 402.7 113.3 293.3 136.2 263.8C159 234.3 182 284.7 204.8 340.5C227.7 396.3 250.3 457.7 273 458.5C295.7 459.3 318.3 399.7 341 388.5C363.7 377.3 386.3 414.7 409 436.3C431.7 458 454.3 464 477 451.8C499.7 439.7 522.3 409.3 545.2 389C568 368.7 591 358.3 613.8 351C636.7 343.7 659.3 339.3 682 331.5C704.7 323.7 727.3 312.3 750 286.8C772.7 261.3 795.3 221.7 818 205C840.7 188.3 863.3 194.7 886.2 257.7C909 320.7 932 440.3 954.8 460.7C977.7 481 1000.3 402 1023 350.7C1045.7 299.3 1068.3 275.7 1091 305.3C1113.7 335 1136.3 418 1159 460.3C1181.7 502.7 1204.3 504.3 1227 508.8C1249.7 513.3 1272.3 520.7 1295.2 528.3C1318 536 1341 544 1363.8 509.5C1386.7 475 1409.3 398 1432 383.7C1454.7 369.3 1477.3 417.7 1488.7 441.8L1500 466L1500 601L1488.7 601C1477.3 601 1454.7 601 1432 601C1409.3 601 1386.7 601 1363.8 601C1341 601 1318 601 1295.2 601C1272.3 601 1249.7 601 1227 601C1204.3 601 1181.7 601 1159 601C1136.3 601 1113.7 601 1091 601C1068.3 601 1045.7 601 1023 601C1000.3 601 977.7 601 954.8 601C932 601 909 601 886.2 601C863.3 601 840.7 601 818 601C795.3 601 772.7 601 750 601C727.3 601 704.7 601 682 601C659.3 601 636.7 601 613.8 601C591 601 568 601 545.2 601C522.3 601 499.7 601 477 601C454.3 601 431.7 601 409 601C386.3 601 363.7 601 341 601C318.3 601 295.7 601 273 601C250.3 601 227.7 601 204.8 601C182 601 159 601 136.2 601C113.3 601 90.7 601 68 601C45.3 601 22.7 601 11.3 601L0 601Z" fill="#515575"></path><path d="M0 422L11.3 424.3C22.7 426.7 45.3 431.3 68 407.5C90.7 383.7 113.3 331.3 136.2 349.7C159 368 182 457 204.8 465.7C227.7 474.3 250.3 402.7 273 389.2C295.7 375.7 318.3 420.3 341 446.2C363.7 472 386.3 479 409 438.3C431.7 397.7 454.3 309.3 477 315.5C499.7 321.7 522.3 422.3 545.2 428.7C568 435 591 347 613.8 343.7C636.7 340.3 659.3 421.7 682 426.5C704.7 431.3 727.3 359.7 750 332.2C772.7 304.7 795.3 321.3 818 342.5C840.7 363.7 863.3 389.3 886.2 416.2C909 443 932 471 954.8 474.3C977.7 477.7 1000.3 456.3 1023 417.5C1045.7 378.7 1068.3 322.3 1091 306C1113.7 289.7 1136.3 313.3 1159 306.3C1181.7 299.3 1204.3 261.7 1227 291C1249.7 320.3 1272.3 416.7 1295.2 452.2C1318 487.7 1341 462.3 1363.8 420C1386.7 377.7 1409.3 318.3 1432 300.7C1454.7 283 1477.3 307 1488.7 319L1500 331L1500 601L1488.7 601C1477.3 601 1454.7 601 1432 601C1409.3 601 1386.7 601 1363.8 601C1341 601 1318 601 1295.2 601C1272.3 601 1249.7 601 1227 601C1204.3 601 1181.7 601 1159 601C1136.3 601 1113.7 601 1091 601C1068.3 601 1045.7 601 1023 601C1000.3 601 977.7 601 954.8 601C932 601 909 601 886.2 601C863.3 601 840.7 601 818 601C795.3 601 772.7 601 750 601C727.3 601 704.7 601 682 601C659.3 601 636.7 601 613.8 601C591 601 568 601 545.2 601C522.3 601 499.7 601 477 601C454.3 601 431.7 601 409 601C386.3 601 363.7 601 341 601C318.3 601 295.7 601 273 601C250.3 601 227.7 601 204.8 601C182 601 159 601 136.2 601C113.3 601 90.7 601 68 601C45.3 601 22.7 601 11.3 601L0 601Z" fill="#655b7f"></path><path d="M0 318L11.3 343.5C22.7 369 45.3 420 68 449C90.7 478 113.3 485 136.2 472.5C159 460 182 428 204.8 441.3C227.7 454.7 250.3 513.3 273 539.3C295.7 565.3 318.3 558.7 341 534.7C363.7 510.7 386.3 469.3 409 467.2C431.7 465 454.3 502 477 480.7C499.7 459.3 522.3 379.7 545.2 360.5C568 341.3 591 382.7 613.8 398.7C636.7 414.7 659.3 405.3 682 430.3C704.7 455.3 727.3 514.7 750 534.5C772.7 554.3 795.3 534.7 818 532.2C840.7 529.7 863.3 544.3 886.2 536.7C909 529 932 499 954.8 450.5C977.7 402 1000.3 335 1023 341.3C1045.7 347.7 1068.3 427.3 1091 471C1113.7 514.7 1136.3 522.3 1159 487.7C1181.7 453 1204.3 376 1227 334.5C1249.7 293 1272.3 287 1295.2 331.8C1318 376.7 1341 472.3 1363.8 481.8C1386.7 491.3 1409.3 414.7 1432 387.2C1454.7 359.7 1477.3 381.3 1488.7 392.2L1500 403L1500 601L1488.7 601C1477.3 601 1454.7 601 1432 601C1409.3 601 1386.7 601 1363.8 601C1341 601 1318 601 1295.2 601C1272.3 601 1249.7 601 1227 601C1204.3 601 1181.7 601 1159 601C1136.3 601 1113.7 601 1091 601C1068.3 601 1045.7 601 1023 601C1000.3 601 977.7 601 954.8 601C932 601 909 601 886.2 601C863.3 601 840.7 601 818 601C795.3 601 772.7 601 750 601C727.3 601 704.7 601 682 601C659.3 601 636.7 601 613.8 601C591 601 568 601 545.2 601C522.3 601 499.7 601 477 601C454.3 601 431.7 601 409 601C386.3 601 363.7 601 341 601C318.3 601 295.7 601 273 601C250.3 601 227.7 601 204.8 601C182 601 159 601 136.2 601C113.3 601 90.7 601 68 601C45.3 601 22.7 601 11.3 601L0 601Z" fill="#7a6087"></path><path d="M0 312L11.3 318.7C22.7 325.3 45.3 338.7 68 381.5C90.7 424.3 113.3 496.7 136.2 493.7C159 490.7 182 412.3 204.8 401C227.7 389.7 250.3 445.3 273 460.7C295.7 476 318.3 451 341 434.7C363.7 418.3 386.3 410.7 409 426.7C431.7 442.7 454.3 482.3 477 492C499.7 501.7 522.3 481.3 545.2 448.8C568 416.3 591 371.7 613.8 368.8C636.7 366 659.3 405 682 424C704.7 443 727.3 442 750 428.7C772.7 415.3 795.3 389.7 818 402.2C840.7 414.7 863.3 465.3 886.2 492.3C909 519.3 932 522.7 954.8 532.3C977.7 542 1000.3 558 1023 563.3C1045.7 568.7 1068.3 563.3 1091 561.2C1113.7 559 1136.3 560 1159 540.7C1181.7 521.3 1204.3 481.7 1227 470C1249.7 458.3 1272.3 474.7 1295.2 480.5C1318 486.3 1341 481.7 1363.8 490.5C1386.7 499.3 1409.3 521.7 1432 533.7C1454.7 545.7 1477.3 547.3 1488.7 548.2L1500 549L1500 601L1488.7 601C1477.3 601 1454.7 601 1432 601C1409.3 601 1386.7 601 1363.8 601C1341 601 1318 601 1295.2 601C1272.3 601 1249.7 601 1227 601C1204.3 601 1181.7 601 1159 601C1136.3 601 1113.7 601 1091 601C1068.3 601 1045.7 601 1023 601C1000.3 601 977.7 601 954.8 601C932 601 909 601 886.2 601C863.3 601 840.7 601 818 601C795.3 601 772.7 601 750 601C727.3 601 704.7 601 682 601C659.3 601 636.7 601 613.8 601C591 601 568 601 545.2 601C522.3 601 499.7 601 477 601C454.3 601 431.7 601 409 601C386.3 601 363.7 601 341 601C318.3 601 295.7 601 273 601C250.3 601 227.7 601 204.8 601C182 601 159 601 136.2 601C113.3 601 90.7 601 68 601C45.3 601 22.7 601 11.3 601L0 601Z" fill="#8f668b"></path><path d="M0 522L11.3 522.2C22.7 522.3 45.3 522.7 68 508.3C90.7 494 113.3 465 136.2 468.3C159 471.7 182 507.3 204.8 498.3C227.7 489.3 250.3 435.7 273 438.3C295.7 441 318.3 500 341 526C363.7 552 386.3 545 409 529.8C431.7 514.7 454.3 491.3 477 488.2C499.7 485 522.3 502 545.2 493.3C568 484.7 591 450.3 613.8 444.2C636.7 438 659.3 460 682 459.5C704.7 459 727.3 436 750 420.5C772.7 405 795.3 397 818 408.2C840.7 419.3 863.3 449.7 886.2 448.8C909 448 932 416 954.8 400C977.7 384 1000.3 384 1023 405.2C1045.7 426.3 1068.3 468.7 1091 463.3C1113.7 458 1136.3 405 1159 399.3C1181.7 393.7 1204.3 435.3 1227 452.5C1249.7 469.7 1272.3 462.3 1295.2 451.7C1318 441 1341 427 1363.8 430.7C1386.7 434.3 1409.3 455.7 1432 456.2C1454.7 456.7 1477.3 436.3 1488.7 426.2L1500 416L1500 601L1488.7 601C1477.3 601 1454.7 601 1432 601C1409.3 601 1386.7 601 1363.8 601C1341 601 1318 601 1295.2 601C1272.3 601 1249.7 601 1227 601C1204.3 601 1181.7 601 1159 601C1136.3 601 1113.7 601 1091 601C1068.3 601 1045.7 601 1023 601C1000.3 601 977.7 601 954.8 601C932 601 909 601 886.2 601C863.3 601 840.7 601 818 601C795.3 601 772.7 601 750 601C727.3 601 704.7 601 682 601C659.3 601 636.7 601 613.8 601C591 601 568 601 545.2 601C522.3 601 499.7 601 477 601C454.3 601 431.7 601 409 601C386.3 601 363.7 601 341 601C318.3 601 295.7 601 273 601C250.3 601 227.7 601 204.8 601C182 601 159 601 136.2 601C113.3 601 90.7 601 68 601C45.3 601 22.7 601 11.3 601L0 601Z" fill="#a56b8d"></path><path d="M0 518L11.3 524.7C22.7 531.3 45.3 544.7 68 545C90.7 545.3 113.3 532.7 136.2 506.5C159 480.3 182 440.7 204.8 449.3C227.7 458 250.3 515 273 543.3C295.7 571.7 318.3 571.3 341 546C363.7 520.7 386.3 470.3 409 464.3C431.7 458.3 454.3 496.7 477 504.8C499.7 513 522.3 491 545.2 484C568 477 591 485 613.8 491.7C636.7 498.3 659.3 503.7 682 496.7C704.7 489.7 727.3 470.3 750 463.8C772.7 457.3 795.3 463.7 818 466.2C840.7 468.7 863.3 467.3 886.2 472.2C909 477 932 488 954.8 483.2C977.7 478.3 1000.3 457.7 1023 443.5C1045.7 429.3 1068.3 421.7 1091 436.7C1113.7 451.7 1136.3 489.3 1159 492.2C1181.7 495 1204.3 463 1227 448.2C1249.7 433.3 1272.3 435.7 1295.2 459.5C1318 483.3 1341 528.7 1363.8 549.8C1386.7 571 1409.3 568 1432 563.7C1454.7 559.3 1477.3 553.7 1488.7 550.8L1500 548L1500 601L1488.7 601C1477.3 601 1454.7 601 1432 601C1409.3 601 1386.7 601 1363.8 601C1341 601 1318 601 1295.2 601C1272.3 601 1249.7 601 1227 601C1204.3 601 1181.7 601 1159 601C1136.3 601 1113.7 601 1091 601C1068.3 601 1045.7 601 1023 601C1000.3 601 977.7 601 954.8 601C932 601 909 601 886.2 601C863.3 601 840.7 601 818 601C795.3 601 772.7 601 750 601C727.3 601 704.7 601 682 601C659.3 601 636.7 601 613.8 601C591 601 568 601 545.2 601C522.3 601 499.7 601 477 601C454.3 601 431.7 601 409 601C386.3 601 363.7 601 341 601C318.3 601 295.7 601 273 601C250.3 601 227.7 601 204.8 601C182 601 159 601 136.2 601C113.3 601 90.7 601 68 601C45.3 601 22.7 601 11.3 601L0 601Z" fill="#b9718c"></path><path d="M0 546L11.3 530.5C22.7 515 45.3 484 68 489.3C90.7 494.7 113.3 536.3 136.2 540.2C159 544 182 510 204.8 487.3C227.7 464.7 250.3 453.3 273 466.5C295.7 479.7 318.3 517.3 341 520.5C363.7 523.7 386.3 492.3 409 493.3C431.7 494.3 454.3 527.7 477 527.8C499.7 528 522.3 495 545.2 484.2C568 473.3 591 484.7 613.8 499C636.7 513.3 659.3 530.7 682 520.8C704.7 511 727.3 474 750 454.7C772.7 435.3 795.3 433.7 818 454.7C840.7 475.7 863.3 519.3 886.2 545.2C909 571 932 579 954.8 563.2C977.7 547.3 1000.3 507.7 1023 499C1045.7 490.3 1068.3 512.7 1091 531.8C1113.7 551 1136.3 567 1159 574.2C1181.7 581.3 1204.3 579.7 1227 555.3C1249.7 531 1272.3 484 1295.2 463.2C1318 442.3 1341 447.7 1363.8 467.8C1386.7 488 1409.3 523 1432 527.2C1454.7 531.3 1477.3 504.7 1488.7 491.3L1500 478L1500 601L1488.7 601C1477.3 601 1454.7 601 1432 601C1409.3 601 1386.7 601 1363.8 601C1341 601 1318 601 1295.2 601C1272.3 601 1249.7 601 1227 601C1204.3 601 1181.7 601 1159 601C1136.3 601 1113.7 601 1091 601C1068.3 601 1045.7 601 1023 601C1000.3 601 977.7 601 954.8 601C932 601 909 601 886.2 601C863.3 601 840.7 601 818 601C795.3 601 772.7 601 750 601C727.3 601 704.7 601 682 601C659.3 601 636.7 601 613.8 601C591 601 568 601 545.2 601C522.3 601 499.7 601 477 601C454.3 601 431.7 601 409 601C386.3 601 363.7 601 341 601C318.3 601 295.7 601 273 601C250.3 601 227.7 601 204.8 601C182 601 159 601 136.2 601C113.3 601 90.7 601 68 601C45.3 601 22.7 601 11.3 601L0 601Z" fill="#cc7889"></path><path d="M0 514L11.3 518.2C22.7 522.3 45.3 530.7 68 532.2C90.7 533.7 113.3 528.3 136.2 532.8C159 537.3 182 551.7 204.8 545.5C227.7 539.3 250.3 512.7 273 502.2C295.7 491.7 318.3 497.3 341 496.5C363.7 495.7 386.3 488.3 409 483.7C431.7 479 454.3 477 477 492.8C499.7 508.7 522.3 542.3 545.2 543C568 543.7 591 511.3 613.8 511.2C636.7 511 659.3 543 682 545.3C704.7 547.7 727.3 520.3 750 503.8C772.7 487.3 795.3 481.7 818 480.5C840.7 479.3 863.3 482.7 886.2 490.5C909 498.3 932 510.7 954.8 508.8C977.7 507 1000.3 491 1023 492.8C1045.7 494.7 1068.3 514.3 1091 518.8C1113.7 523.3 1136.3 512.7 1159 507.7C1181.7 502.7 1204.3 503.3 1227 504.2C1249.7 505 1272.3 506 1295.2 502.8C1318 499.7 1341 492.3 1363.8 505.3C1386.7 518.3 1409.3 551.7 1432 557.7C1454.7 563.7 1477.3 542.3 1488.7 531.7L1500 521L1500 601L1488.7 601C1477.3 601 1454.7 601 1432 601C1409.3 601 1386.7 601 1363.8 601C1341 601 1318 601 1295.2 601C1272.3 601 1249.7 601 1227 601C1204.3 601 1181.7 601 1159 601C1136.3 601 1113.7 601 1091 601C1068.3 601 1045.7 601 1023 601C1000.3 601 977.7 601 954.8 601C932 601 909 601 886.2 601C863.3 601 840.7 601 818 601C795.3 601 772.7 601 750 601C727.3 601 704.7 601 682 601C659.3 601 636.7 601 613.8 601C591 601 568 601 545.2 601C522.3 601 499.7 601 477 601C454.3 601 431.7 601 409 601C386.3 601 363.7 601 341 601C318.3 601 295.7 601 273 601C250.3 601 227.7 601 204.8 601C182 601 159 601 136.2 601C113.3 601 90.7 601 68 601C45.3 601 22.7 601 11.3 601L0 601Z" fill="#dc8184"></path><path d="M0 550L11.3 548.2C22.7 546.3 45.3 542.7 68 544.7C90.7 546.7 113.3 554.3 136.2 564.3C159 574.3 182 586.7 204.8 591.7C227.7 596.7 250.3 594.3 273 589.7C295.7 585 318.3 578 341 574.7C363.7 571.3 386.3 571.7 409 567.8C431.7 564 454.3 556 477 556C499.7 556 522.3 564 545.2 564.7C568 565.3 591 558.7 613.8 554C636.7 549.3 659.3 546.7 682 553C704.7 559.3 727.3 574.7 750 575.2C772.7 575.7 795.3 561.3 818 549C840.7 536.7 863.3 526.3 886.2 528.8C909 531.3 932 546.7 954.8 548.8C977.7 551 1000.3 540 1023 533.8C1045.7 527.7 1068.3 526.3 1091 526C1113.7 525.7 1136.3 526.3 1159 527.7C1181.7 529 1204.3 531 1227 537.3C1249.7 543.7 1272.3 554.3 1295.2 554.2C1318 554 1341 543 1363.8 548.3C1386.7 553.7 1409.3 575.3 1432 579.2C1454.7 583 1477.3 569 1488.7 562L1500 555L1500 601L1488.7 601C1477.3 601 1454.7 601 1432 601C1409.3 601 1386.7 601 1363.8 601C1341 601 1318 601 1295.2 601C1272.3 601 1249.7 601 1227 601C1204.3 601 1181.7 601 1159 601C1136.3 601 1113.7 601 1091 601C1068.3 601 1045.7 601 1023 601C1000.3 601 977.7 601 954.8 601C932 601 909 601 886.2 601C863.3 601 840.7 601 818 601C795.3 601 772.7 601 750 601C727.3 601 704.7 601 682 601C659.3 601 636.7 601 613.8 601C591 601 568 601 545.2 601C522.3 601 499.7 601 477 601C454.3 601 431.7 601 409 601C386.3 601 363.7 601 341 601C318.3 601 295.7 601 273 601C250.3 601 227.7 601 204.8 601C182 601 159 601 136.2 601C113.3 601 90.7 601 68 601C45.3 601 22.7 601 11.3 601L0 601Z" fill="#e88c7d"></path></svg>