<svg id="visual" viewBox="0 0 1500 600" width="1500" height="600" xmlns="http://www.w3.org/2000/svg" xmlns:xlink="http://www.w3.org/1999/xlink" version="1.1"><path d="M0 327L10.8 329.3C21.7 331.7 43.3 336.3 65 359.3C86.7 382.3 108.3 423.7 130.2 429.5C152 435.3 174 405.7 195.8 398C217.7 390.3 239.3 404.7 261 401.2C282.7 397.7 304.3 376.3 326 358.2C347.7 340 369.3 325 391.2 342C413 359 435 408 456.8 433.8C478.7 459.7 500.3 462.3 522 460.3C543.7 458.3 565.3 451.7 587 441.2C608.7 430.7 630.3 416.3 652 410.2C673.7 404 695.3 406 717.2 405.5C739 405 761 402 782.8 408.2C804.7 414.3 826.3 429.7 848 427.2C869.7 424.7 891.3 404.3 913 396.2C934.7 388 956.3 392 978 382.5C999.7 373 1021.3 350 1043.2 338.8C1065 327.7 1087 328.3 1108.8 333C1130.7 337.7 1152.3 346.3 1174 367.7C1195.7 389 1217.3 423 1239 416.3C1260.7 409.7 1282.3 362.3 1304.2 358.7C1326 355 1348 395 1369.8 413C1391.7 431 1413.3 427 1435 419.2C1456.7 411.3 1478.3 399.7 1489.2 393.8L1500 388L1500 601L1489.2 601C1478.3 601 1456.7 601 1435 601C1413.3 601 1391.7 601 1369.8 601C1348 601 1326 601 1304.2 601C1282.3 601 1260.7 601 1239 601C1217.3 601 1195.7 601 1174 601C1152.3 601 1130.7 601 1108.8 601C1087 601 1065 601 1043.2 601C1021.3 601 999.7 601 978 601C956.3 601 934.7 601 913 601C891.3 601 869.7 601 848 601C826.3 601 804.7 601 782.8 601C761 601 739 601 717.2 601C695.3 601 673.7 601 652 601C630.3 601 608.7 601 587 601C565.3 601 543.7 601 522 601C500.3 601 478.7 601 456.8 601C435 601 413 601 391.2 601C369.3 601 347.7 601 326 601C304.3 601 282.7 601 261 601C239.3 601 217.7 601 195.8 601C174 601 152 601 130.2 601C108.3 601 86.7 601 65 601C43.3 601 21.7 601 10.8 601L0 601Z" fill="#915f78"></path><path d="M0 428L10.8 425C21.7 422 43.3 416 65 404.3C86.7 392.7 108.3 375.3 130.2 375.7C152 376 174 394 195.8 394.5C217.7 395 239.3 378 261 368.8C282.7 359.7 304.3 358.3 326 358.8C347.7 359.3 369.3 361.7 391.2 358.5C413 355.3 435 346.7 456.8 349.5C478.7 352.3 500.3 366.7 522 382.5C543.7 398.3 565.3 415.7 587 408.8C608.7 402 630.3 371 652 360.2C673.7 349.3 695.3 358.7 717.2 363.5C739 368.3 761 368.7 782.8 373.3C804.7 378 826.3 387 848 392C869.7 397 891.3 398 913 393.2C934.7 388.3 956.3 377.7 978 386.2C999.7 394.7 1021.3 422.3 1043.2 439.2C1065 456 1087 462 1108.8 456.8C1130.7 451.7 1152.3 435.3 1174 436.2C1195.7 437 1217.3 455 1239 457.7C1260.7 460.3 1282.3 447.7 1304.2 434C1326 420.3 1348 405.7 1369.8 393.3C1391.7 381 1413.3 371 1435 371.2C1456.7 371.3 1478.3 381.7 1489.2 386.8L1500 392L1500 601L1489.2 601C1478.3 601 1456.7 601 1435 601C1413.3 601 1391.7 601 1369.8 601C1348 601 1326 601 1304.2 601C1282.3 601 1260.7 601 1239 601C1217.3 601 1195.7 601 1174 601C1152.3 601 1130.7 601 1108.8 601C1087 601 1065 601 1043.2 601C1021.3 601 999.7 601 978 601C956.3 601 934.7 601 913 601C891.3 601 869.7 601 848 601C826.3 601 804.7 601 782.8 601C761 601 739 601 717.2 601C695.3 601 673.7 601 652 601C630.3 601 608.7 601 587 601C565.3 601 543.7 601 522 601C500.3 601 478.7 601 456.8 601C435 601 413 601 391.2 601C369.3 601 347.7 601 326 601C304.3 601 282.7 601 261 601C239.3 601 217.7 601 195.8 601C174 601 152 601 130.2 601C108.3 601 86.7 601 65 601C43.3 601 21.7 601 10.8 601L0 601Z" fill="#895d7a"></path><path d="M0 493L10.8 477.7C21.7 462.3 43.3 431.7 65 416.8C86.7 402 108.3 403 130.2 396.8C152 390.7 174 377.3 195.8 378.3C217.7 379.3 239.3 394.7 261 401.3C282.7 408 304.3 406 326 414C347.7 422 369.3 440 391.2 436.7C413 433.3 435 408.7 456.8 393.7C478.7 378.7 500.3 373.3 522 376.5C543.7 379.7 565.3 391.3 587 405C608.7 418.7 630.3 434.3 652 428.8C673.7 423.3 695.3 396.7 717.2 389.3C739 382 761 394 782.8 404.5C804.7 415 826.3 424 848 421.2C869.7 418.3 891.3 403.7 913 412.3C934.7 421 956.3 453 978 462C999.7 471 1021.3 457 1043.2 436.5C1065 416 1087 389 1108.8 383.7C1130.7 378.3 1152.3 394.7 1174 414C1195.7 433.3 1217.3 455.7 1239 464.8C1260.7 474 1282.3 470 1304.2 466.2C1326 462.3 1348 458.7 1369.8 445C1391.7 431.3 1413.3 407.7 1435 397.3C1456.7 387 1478.3 390 1489.2 391.5L1500 393L1500 601L1489.2 601C1478.3 601 1456.7 601 1435 601C1413.3 601 1391.7 601 1369.8 601C1348 601 1326 601 1304.2 601C1282.3 601 1260.7 601 1239 601C1217.3 601 1195.7 601 1174 601C1152.3 601 1130.7 601 1108.8 601C1087 601 1065 601 1043.2 601C1021.3 601 999.7 601 978 601C956.3 601 934.7 601 913 601C891.3 601 869.7 601 848 601C826.3 601 804.7 601 782.8 601C761 601 739 601 717.2 601C695.3 601 673.7 601 652 601C630.3 601 608.7 601 587 601C565.3 601 543.7 601 522 601C500.3 601 478.7 601 456.8 601C435 601 413 601 391.2 601C369.3 601 347.7 601 326 601C304.3 601 282.7 601 261 601C239.3 601 217.7 601 195.8 601C174 601 152 601 130.2 601C108.3 601 86.7 601 65 601C43.3 601 21.7 601 10.8 601L0 601Z" fill="#805b7b"></path><path d="M0 493L10.8 493.7C21.7 494.3 43.3 495.7 65 493.3C86.7 491 108.3 485 130.2 472.7C152 460.3 174 441.7 195.8 435.7C217.7 429.7 239.3 436.3 261 437.2C282.7 438 304.3 433 326 443.2C347.7 453.3 369.3 478.7 391.2 475C413 471.3 435 438.7 456.8 439.2C478.7 439.7 500.3 473.3 522 486.5C543.7 499.7 565.3 492.3 587 474C608.7 455.7 630.3 426.3 652 423.3C673.7 420.3 695.3 443.7 717.2 458C739 472.3 761 477.7 782.8 482.8C804.7 488 826.3 493 848 477.3C869.7 461.7 891.3 425.3 913 411C934.7 396.7 956.3 404.3 978 412.7C999.7 421 1021.3 430 1043.2 440.3C1065 450.7 1087 462.3 1108.8 471.2C1130.7 480 1152.3 486 1174 489.2C1195.7 492.3 1217.3 492.7 1239 483.8C1260.7 475 1282.3 457 1304.2 442.3C1326 427.7 1348 416.3 1369.8 418.3C1391.7 420.3 1413.3 435.7 1435 434.5C1456.7 433.3 1478.3 415.7 1489.2 406.8L1500 398L1500 601L1489.2 601C1478.3 601 1456.7 601 1435 601C1413.3 601 1391.7 601 1369.8 601C1348 601 1326 601 1304.2 601C1282.3 601 1260.7 601 1239 601C1217.3 601 1195.7 601 1174 601C1152.3 601 1130.7 601 1108.8 601C1087 601 1065 601 1043.2 601C1021.3 601 999.7 601 978 601C956.3 601 934.7 601 913 601C891.3 601 869.7 601 848 601C826.3 601 804.7 601 782.8 601C761 601 739 601 717.2 601C695.3 601 673.7 601 652 601C630.3 601 608.7 601 587 601C565.3 601 543.7 601 522 601C500.3 601 478.7 601 456.8 601C435 601 413 601 391.2 601C369.3 601 347.7 601 326 601C304.3 601 282.7 601 261 601C239.3 601 217.7 601 195.8 601C174 601 152 601 130.2 601C108.3 601 86.7 601 65 601C43.3 601 21.7 601 10.8 601L0 601Z" fill="#76597c"></path><path d="M0 460L10.8 453.7C21.7 447.3 43.3 434.7 65 432.7C86.7 430.7 108.3 439.3 130.2 452.5C152 465.7 174 483.3 195.8 478.2C217.7 473 239.3 445 261 443.2C282.7 441.3 304.3 465.7 326 479.3C347.7 493 369.3 496 391.2 495.7C413 495.3 435 491.7 456.8 492.3C478.7 493 500.3 498 522 489.2C543.7 480.3 565.3 457.7 587 449.7C608.7 441.7 630.3 448.3 652 460.3C673.7 472.3 695.3 489.7 717.2 495.8C739 502 761 497 782.8 498.5C804.7 500 826.3 508 848 512.2C869.7 516.3 891.3 516.7 913 504.7C934.7 492.7 956.3 468.3 978 464C999.7 459.7 1021.3 475.3 1043.2 478C1065 480.7 1087 470.3 1108.8 466.5C1130.7 462.7 1152.3 465.3 1174 469.8C1195.7 474.3 1217.3 480.7 1239 486C1260.7 491.3 1282.3 495.7 1304.2 500.7C1326 505.7 1348 511.3 1369.8 509.7C1391.7 508 1413.3 499 1435 495.8C1456.7 492.7 1478.3 495.3 1489.2 496.7L1500 498L1500 601L1489.2 601C1478.3 601 1456.7 601 1435 601C1413.3 601 1391.7 601 1369.8 601C1348 601 1326 601 1304.2 601C1282.3 601 1260.7 601 1239 601C1217.3 601 1195.7 601 1174 601C1152.3 601 1130.7 601 1108.8 601C1087 601 1065 601 1043.2 601C1021.3 601 999.7 601 978 601C956.3 601 934.7 601 913 601C891.3 601 869.7 601 848 601C826.3 601 804.7 601 782.8 601C761 601 739 601 717.2 601C695.3 601 673.7 601 652 601C630.3 601 608.7 601 587 601C565.3 601 543.7 601 522 601C500.3 601 478.7 601 456.8 601C435 601 413 601 391.2 601C369.3 601 347.7 601 326 601C304.3 601 282.7 601 261 601C239.3 601 217.7 601 195.8 601C174 601 152 601 130.2 601C108.3 601 86.7 601 65 601C43.3 601 21.7 601 10.8 601L0 601Z" fill="#6c587c"></path><path d="M0 530L10.8 517.5C21.7 505 43.3 480 65 474.8C86.7 469.7 108.3 484.3 130.2 482.5C152 480.7 174 462.3 195.8 467.5C217.7 472.7 239.3 501.3 261 505.2C282.7 509 304.3 488 326 481.3C347.7 474.7 369.3 482.3 391.2 489C413 495.7 435 501.3 456.8 503.8C478.7 506.3 500.3 505.7 522 498C543.7 490.3 565.3 475.7 587 466.8C608.7 458 630.3 455 652 457C673.7 459 695.3 466 717.2 465.2C739 464.3 761 455.7 782.8 455.2C804.7 454.7 826.3 462.3 848 465C869.7 467.7 891.3 465.3 913 472.7C934.7 480 956.3 497 978 506C999.7 515 1021.3 516 1043.2 514.8C1065 513.7 1087 510.3 1108.8 499C1130.7 487.7 1152.3 468.3 1174 459.5C1195.7 450.7 1217.3 452.3 1239 456.5C1260.7 460.7 1282.3 467.3 1304.2 469.3C1326 471.3 1348 468.7 1369.8 477.8C1391.7 487 1413.3 508 1435 506.7C1456.7 505.3 1478.3 481.7 1489.2 469.8L1500 458L1500 601L1489.2 601C1478.3 601 1456.7 601 1435 601C1413.3 601 1391.7 601 1369.8 601C1348 601 1326 601 1304.2 601C1282.3 601 1260.7 601 1239 601C1217.3 601 1195.7 601 1174 601C1152.3 601 1130.7 601 1108.8 601C1087 601 1065 601 1043.2 601C1021.3 601 999.7 601 978 601C956.3 601 934.7 601 913 601C891.3 601 869.7 601 848 601C826.3 601 804.7 601 782.8 601C761 601 739 601 717.2 601C695.3 601 673.7 601 652 601C630.3 601 608.7 601 587 601C565.3 601 543.7 601 522 601C500.3 601 478.7 601 456.8 601C435 601 413 601 391.2 601C369.3 601 347.7 601 326 601C304.3 601 282.7 601 261 601C239.3 601 217.7 601 195.8 601C174 601 152 601 130.2 601C108.3 601 86.7 601 65 601C43.3 601 21.7 601 10.8 601L0 601Z" fill="#62567b"></path><path d="M0 523L10.8 527.5C21.7 532 43.3 541 65 534.2C86.7 527.3 108.3 504.7 130.2 504.3C152 504 174 526 195.8 526.3C217.7 526.7 239.3 505.3 261 501.5C282.7 497.7 304.3 511.3 326 512.5C347.7 513.7 369.3 502.3 391.2 502.2C413 502 435 513 456.8 514.2C478.7 515.3 500.3 506.7 522 504.3C543.7 502 565.3 506 587 505C608.7 504 630.3 498 652 500C673.7 502 695.3 512 717.2 508.2C739 504.3 761 486.7 782.8 491.7C804.7 496.7 826.3 524.3 848 525.8C869.7 527.3 891.3 502.7 913 501C934.7 499.3 956.3 520.7 978 529.7C999.7 538.7 1021.3 535.3 1043.2 530C1065 524.7 1087 517.3 1108.8 515.8C1130.7 514.3 1152.3 518.7 1174 520C1195.7 521.3 1217.3 519.7 1239 520.3C1260.7 521 1282.3 524 1304.2 528.8C1326 533.7 1348 540.3 1369.8 542.7C1391.7 545 1413.3 543 1435 540.7C1456.7 538.3 1478.3 535.7 1489.2 534.3L1500 533L1500 601L1489.2 601C1478.3 601 1456.7 601 1435 601C1413.3 601 1391.7 601 1369.8 601C1348 601 1326 601 1304.2 601C1282.3 601 1260.7 601 1239 601C1217.3 601 1195.7 601 1174 601C1152.3 601 1130.7 601 1108.8 601C1087 601 1065 601 1043.2 601C1021.3 601 999.7 601 978 601C956.3 601 934.7 601 913 601C891.3 601 869.7 601 848 601C826.3 601 804.7 601 782.8 601C761 601 739 601 717.2 601C695.3 601 673.7 601 652 601C630.3 601 608.7 601 587 601C565.3 601 543.7 601 522 601C500.3 601 478.7 601 456.8 601C435 601 413 601 391.2 601C369.3 601 347.7 601 326 601C304.3 601 282.7 601 261 601C239.3 601 217.7 601 195.8 601C174 601 152 601 130.2 601C108.3 601 86.7 601 65 601C43.3 601 21.7 601 10.8 601L0 601Z" fill="#57557a"></path><path d="M0 500L10.8 506.2C21.7 512.3 43.3 524.7 65 524.8C86.7 525 108.3 513 130.2 508.3C152 503.7 174 506.3 195.8 511.7C217.7 517 239.3 525 261 533.8C282.7 542.7 304.3 552.3 326 551.3C347.7 550.3 369.3 538.7 391.2 535.3C413 532 435 537 456.8 538.8C478.7 540.7 500.3 539.3 522 540.8C543.7 542.3 565.3 546.7 587 549.7C608.7 552.7 630.3 554.3 652 555.2C673.7 556 695.3 556 717.2 556.2C739 556.3 761 556.7 782.8 547C804.7 537.3 826.3 517.7 848 508.3C869.7 499 891.3 500 913 505.3C934.7 510.7 956.3 520.3 978 519.8C999.7 519.3 1021.3 508.7 1043.2 506.7C1065 504.7 1087 511.3 1108.8 513.3C1130.7 515.3 1152.3 512.7 1174 513.2C1195.7 513.7 1217.3 517.3 1239 524.5C1260.7 531.7 1282.3 542.3 1304.2 544.7C1326 547 1348 541 1369.8 533.5C1391.7 526 1413.3 517 1435 513.5C1456.7 510 1478.3 512 1489.2 513L1500 514L1500 601L1489.2 601C1478.3 601 1456.7 601 1435 601C1413.3 601 1391.7 601 1369.8 601C1348 601 1326 601 1304.2 601C1282.3 601 1260.7 601 1239 601C1217.3 601 1195.7 601 1174 601C1152.3 601 1130.7 601 1108.8 601C1087 601 1065 601 1043.2 601C1021.3 601 999.7 601 978 601C956.3 601 934.7 601 913 601C891.3 601 869.7 601 848 601C826.3 601 804.7 601 782.8 601C761 601 739 601 717.2 601C695.3 601 673.7 601 652 601C630.3 601 608.7 601 587 601C565.3 601 543.7 601 522 601C500.3 601 478.7 601 456.8 601C435 601 413 601 391.2 601C369.3 601 347.7 601 326 601C304.3 601 282.7 601 261 601C239.3 601 217.7 601 195.8 601C174 601 152 601 130.2 601C108.3 601 86.7 601 65 601C43.3 601 21.7 601 10.8 601L0 601Z" fill="#4b5377"></path><path d="M0 554L10.8 550C21.7 546 43.3 538 65 533.2C86.7 528.3 108.3 526.7 130.2 527.2C152 527.7 174 530.3 195.8 536C217.7 541.7 239.3 550.3 261 552.2C282.7 554 304.3 549 326 547C347.7 545 369.3 546 391.2 551.5C413 557 435 567 456.8 571.3C478.7 575.7 500.3 574.3 522 574.5C543.7 574.7 565.3 576.3 587 576.5C608.7 576.7 630.3 575.3 652 573.8C673.7 572.3 695.3 570.7 717.2 562.8C739 555 761 541 782.8 536.8C804.7 532.7 826.3 538.3 848 539.2C869.7 540 891.3 536 913 541.7C934.7 547.3 956.3 562.7 978 568.2C999.7 573.7 1021.3 569.3 1043.2 564.5C1065 559.7 1087 554.3 1108.8 550.5C1130.7 546.7 1152.3 544.3 1174 546.8C1195.7 549.3 1217.3 556.7 1239 557.8C1260.7 559 1282.3 554 1304.2 556.3C1326 558.7 1348 568.3 1369.8 567C1391.7 565.7 1413.3 553.3 1435 548.7C1456.7 544 1478.3 547 1489.2 548.5L1500 550L1500 601L1489.2 601C1478.3 601 1456.7 601 1435 601C1413.3 601 1391.7 601 1369.8 601C1348 601 1326 601 1304.2 601C1282.3 601 1260.7 601 1239 601C1217.3 601 1195.7 601 1174 601C1152.3 601 1130.7 601 1108.8 601C1087 601 1065 601 1043.2 601C1021.3 601 999.7 601 978 601C956.3 601 934.7 601 913 601C891.3 601 869.7 601 848 601C826.3 601 804.7 601 782.8 601C761 601 739 601 717.2 601C695.3 601 673.7 601 652 601C630.3 601 608.7 601 587 601C565.3 601 543.7 601 522 601C500.3 601 478.7 601 456.8 601C435 601 413 601 391.2 601C369.3 601 347.7 601 326 601C304.3 601 282.7 601 261 601C239.3 601 217.7 601 195.8 601C174 601 152 601 130.2 601C108.3 601 86.7 601 65 601C43.3 601 21.7 601 10.8 601L0 601Z" fill="#405274"></path><path d="M0 590L10.8 584C21.7 578 43.3 566 65 562.2C86.7 558.3 108.3 562.7 130.2 564.5C152 566.3 174 565.7 195.8 570.5C217.7 575.3 239.3 585.7 261 590.7C282.7 595.7 304.3 595.3 326 588C347.7 580.7 369.3 566.3 391.2 558.8C413 551.3 435 550.7 456.8 553.3C478.7 556 500.3 562 522 564.3C543.7 566.7 565.3 565.3 587 568.8C608.7 572.3 630.3 580.7 652 580.8C673.7 581 695.3 573 717.2 573.5C739 574 761 583 782.8 588C804.7 593 826.3 594 848 593.2C869.7 592.3 891.3 589.7 913 586C934.7 582.3 956.3 577.7 978 573.3C999.7 569 1021.3 565 1043.2 560.7C1065 556.3 1087 551.7 1108.8 553.3C1130.7 555 1152.3 563 1174 565.7C1195.7 568.3 1217.3 565.7 1239 566C1260.7 566.3 1282.3 569.7 1304.2 574.7C1326 579.7 1348 586.3 1369.8 582.5C1391.7 578.7 1413.3 564.3 1435 563.5C1456.7 562.7 1478.3 575.3 1489.2 581.7L1500 588L1500 601L1489.2 601C1478.3 601 1456.7 601 1435 601C1413.3 601 1391.7 601 1369.8 601C1348 601 1326 601 1304.2 601C1282.3 601 1260.7 601 1239 601C1217.3 601 1195.7 601 1174 601C1152.3 601 1130.7 601 1108.8 601C1087 601 1065 601 1043.2 601C1021.3 601 999.7 601 978 601C956.3 601 934.7 601 913 601C891.3 601 869.7 601 848 601C826.3 601 804.7 601 782.8 601C761 601 739 601 717.2 601C695.3 601 673.7 601 652 601C630.3 601 608.7 601 587 601C565.3 601 543.7 601 522 601C500.3 601 478.7 601 456.8 601C435 601 413 601 391.2 601C369.3 601 347.7 601 326 601C304.3 601 282.7 601 261 601C239.3 601 217.7 601 195.8 601C174 601 152 601 130.2 601C108.3 601 86.7 601 65 601C43.3 601 21.7 601 10.8 601L0 601Z" fill="#355070"></path></svg>