<svg id="visual" viewBox="0 0 2000 1000" width="2000" height="1000" xmlns="http://www.w3.org/2000/svg" xmlns:xlink="http://www.w3.org/1999/xlink" version="1.1"><path d="M0 577L47.7 592.2C95.3 607.3 190.7 637.7 285.8 642.8C381 648 476 628 571.2 620.5C666.3 613 761.7 618 857 631.8C952.3 645.7 1047.7 668.3 1143 665C1238.3 661.7 1333.7 632.3 1428.8 623.8C1524 615.3 1619 627.7 1714.2 630.5C1809.3 633.3 1904.7 626.7 1952.3 623.3L2000 620L2000 1001L1952.3 1001C1904.7 1001 1809.3 1001 1714.2 1001C1619 1001 1524 1001 1428.8 1001C1333.7 1001 1238.3 1001 1143 1001C1047.7 1001 952.3 1001 857 1001C761.7 1001 666.3 1001 571.2 1001C476 1001 381 1001 285.8 1001C190.7 1001 95.3 1001 47.7 1001L0 1001Z" fill="#515575"></path><path d="M0 702L47.7 703.7C95.3 705.3 190.7 708.7 285.8 706C381 703.3 476 694.7 571.2 683.2C666.3 671.7 761.7 657.3 857 669C952.3 680.7 1047.7 718.3 1143 720.2C1238.3 722 1333.7 688 1428.8 682.7C1524 677.3 1619 700.7 1714.2 703C1809.3 705.3 1904.7 686.7 1952.3 677.3L2000 668L2000 1001L1952.3 1001C1904.7 1001 1809.3 1001 1714.2 1001C1619 1001 1524 1001 1428.8 1001C1333.7 1001 1238.3 1001 1143 1001C1047.7 1001 952.3 1001 857 1001C761.7 1001 666.3 1001 571.2 1001C476 1001 381 1001 285.8 1001C190.7 1001 95.3 1001 47.7 1001L0 1001Z" fill="#6c5e81"></path><path d="M0 697L47.7 697.5C95.3 698 190.7 699 285.8 709.8C381 720.7 476 741.3 571.2 750.8C666.3 760.3 761.7 758.7 857 764.2C952.3 769.7 1047.7 782.3 1143 784.5C1238.3 786.7 1333.7 778.3 1428.8 760.3C1524 742.3 1619 714.7 1714.2 702.8C1809.3 691 1904.7 695 1952.3 697L2000 699L2000 1001L1952.3 1001C1904.7 1001 1809.3 1001 1714.2 1001C1619 1001 1524 1001 1428.8 1001C1333.7 1001 1238.3 1001 1143 1001C1047.7 1001 952.3 1001 857 1001C761.7 1001 666.3 1001 571.2 1001C476 1001 381 1001 285.8 1001C190.7 1001 95.3 1001 47.7 1001L0 1001Z" fill="#886789"></path><path d="M0 809L47.7 803.7C95.3 798.3 190.7 787.7 285.8 782.2C381 776.7 476 776.3 571.2 767.5C666.3 758.7 761.7 741.3 857 736.5C952.3 731.7 1047.7 739.3 1143 754.8C1238.3 770.3 1333.7 793.7 1428.8 795.5C1524 797.3 1619 777.7 1714.2 774.5C1809.3 771.3 1904.7 784.7 1952.3 791.3L2000 798L2000 1001L1952.3 1001C1904.7 1001 1809.3 1001 1714.2 1001C1619 1001 1524 1001 1428.8 1001C1333.7 1001 1238.3 1001 1143 1001C1047.7 1001 952.3 1001 857 1001C761.7 1001 666.3 1001 571.2 1001C476 1001 381 1001 285.8 1001C190.7 1001 95.3 1001 47.7 1001L0 1001Z" fill="#a2718d"></path><path d="M0 860L47.7 846.7C95.3 833.3 190.7 806.7 285.8 792.3C381 778 476 776 571.2 776.8C666.3 777.7 761.7 781.3 857 794.3C952.3 807.3 1047.7 829.7 1143 832.7C1238.3 835.7 1333.7 819.3 1428.8 805.8C1524 792.3 1619 781.7 1714.2 787.7C1809.3 793.7 1904.7 816.3 1952.3 827.7L2000 839L2000 1001L1952.3 1001C1904.7 1001 1809.3 1001 1714.2 1001C1619 1001 1524 1001 1428.8 1001C1333.7 1001 1238.3 1001 1143 1001C1047.7 1001 952.3 1001 857 1001C761.7 1001 666.3 1001 571.2 1001C476 1001 381 1001 285.8 1001C190.7 1001 95.3 1001 47.7 1001L0 1001Z" fill="#bb7c8e"></path><path d="M0 887L47.7 885.7C95.3 884.3 190.7 881.7 285.8 876.3C381 871 476 863 571.2 861.7C666.3 860.3 761.7 865.7 857 865.7C952.3 865.7 1047.7 860.3 1143 857.2C1238.3 854 1333.7 853 1428.8 855C1524 857 1619 862 1714.2 856.8C1809.3 851.7 1904.7 836.3 1952.3 828.7L2000 821L2000 1001L1952.3 1001C1904.7 1001 1809.3 1001 1714.2 1001C1619 1001 1524 1001 1428.8 1001C1333.7 1001 1238.3 1001 1143 1001C1047.7 1001 952.3 1001 857 1001C761.7 1001 666.3 1001 571.2 1001C476 1001 381 1001 285.8 1001C190.7 1001 95.3 1001 47.7 1001L0 1001Z" fill="#cf898d"></path><path d="M0 898L47.7 894C95.3 890 190.7 882 285.8 880.8C381 879.7 476 885.3 571.2 894.8C666.3 904.3 761.7 917.7 857 916C952.3 914.3 1047.7 897.7 1143 896.7C1238.3 895.7 1333.7 910.3 1428.8 919.2C1524 928 1619 931 1714.2 923.2C1809.3 915.3 1904.7 896.7 1952.3 887.3L2000 878L2000 1001L1952.3 1001C1904.7 1001 1809.3 1001 1714.2 1001C1619 1001 1524 1001 1428.8 1001C1333.7 1001 1238.3 1001 1143 1001C1047.7 1001 952.3 1001 857 1001C761.7 1001 666.3 1001 571.2 1001C476 1001 381 1001 285.8 1001C190.7 1001 95.3 1001 47.7 1001L0 1001Z" fill="#df9a8b"></path><path d="M0 969L47.7 964.5C95.3 960 190.7 951 285.8 944.8C381 938.7 476 935.3 571.2 931.2C666.3 927 761.7 922 857 922.3C952.3 922.7 1047.7 928.3 1143 930.7C1238.3 933 1333.7 932 1428.8 938C1524 944 1619 957 1714.2 956.2C1809.3 955.3 1904.7 940.7 1952.3 933.3L2000 926L2000 1001L1952.3 1001C1904.7 1001 1809.3 1001 1714.2 1001C1619 1001 1524 1001 1428.8 1001C1333.7 1001 1238.3 1001 1143 1001C1047.7 1001 952.3 1001 857 1001C761.7 1001 666.3 1001 571.2 1001C476 1001 381 1001 285.8 1001C190.7 1001 95.3 1001 47.7 1001L0 1001Z" fill="#eaac8b"></path></svg>